<svg xmlns="http://www.w3.org/2000/svg" width="30" height="28" viewBox="0 0 30 28" fill="none">
    <path d="M22.6141 1.22651C22.165 1.18586 21.7495 1.16553 21.3608 1.16553C18.224 1.16553 16.7227 2.48014 15.0002 4.47918C13.2777 2.48014 11.7763 1.16553 8.63958 1.16553C8.25084 1.16553 7.82859 1.18586 7.38623 1.22651C4.67175 1.48402 1.53502 3.90318 1.15298 8.53145V10.0697C1.50821 14.5014 4.94655 19.97 15.0002 26.8277C25.0538 19.97 28.4921 14.5014 28.8474 10.0697V8.53145C28.4653 3.90318 25.3286 1.48402 22.6141 1.22651Z" stroke="#D14F4F" stroke-width="2" stroke-miterlimit="10" stroke-linecap="round" stroke-linejoin="round"/>
    <path d="M1.72916 11.6687H8.61924L11.4946 6.41699L14.2962 19.2515L18.083 12.2515H28.2707" stroke="#D14F4F" stroke-width="2" stroke-miterlimit="10" stroke-linecap="round" stroke-linejoin="round"/>
</svg>