<svg xmlns="http://www.w3.org/2000/svg" width="30" height="34" viewBox="0 0 30 34" fill="none">
    <path d="M5.09624 3.28711H3.39304C2.14359 3.28711 1.13087 4.26819 1.13087 5.4786V14.7988C1.13087 19.3411 4.93184 23.0233 9.62057 23.0233C14.3093 23.0233 18.1103 19.3411 18.1103 14.7988V5.48497C18.1103 4.27456 17.0976 3.29348 15.8481 3.29348H14.1515" stroke="#3378DF" stroke-width="2" stroke-miterlimit="10" stroke-linecap="round" stroke-linejoin="round"/>
    <path d="M26.6064 13.1616V24.6797C26.6064 29.222 22.8054 32.9042 18.1167 32.9042C13.4279 32.9042 9.62697 29.222 9.62697 24.6797V23.0361" stroke="#3378DF" stroke-width="2" stroke-miterlimit="10" stroke-linecap="round" stroke-linejoin="round"/>
    <path d="M26.6064 12.6076C27.8558 12.6076 28.8686 11.6264 28.8686 10.4161C28.8686 9.20577 27.8558 8.22461 26.6064 8.22461C25.3571 8.22461 24.3443 9.20577 24.3443 10.4161C24.3443 11.6264 25.3571 12.6076 26.6064 12.6076Z" stroke="#3378DF" stroke-width="2" stroke-miterlimit="10" stroke-linecap="round" stroke-linejoin="round"/>
    <path d="M5.09624 1.0957V5.48506" stroke="#3378DF" stroke-width="2" stroke-miterlimit="10" stroke-linecap="round" stroke-linejoin="round"/>
    <path d="M14.1515 1.0957V5.48506" stroke="#3378DF" stroke-width="2" stroke-miterlimit="10" stroke-linecap="round" stroke-linejoin="round"/>
</svg>