<svg width="14" height="20" viewBox="0 0 14 20" fill="none" xmlns="http://www.w3.org/2000/svg">
    <path d="M6.2806 18.9566C0.983281 11.277 0 10.4889 0 7.6665C0 3.8005 3.13399 0.666504 7 0.666504C10.866 0.666504 14 3.8005 14 7.6665C14 10.4889 13.0167 11.277 7.7194 18.9566C7.37177 19.4587 6.6282 19.4587 6.2806 18.9566ZM7 10.5832C8.61084 10.5832 9.91667 9.27734 9.91667 7.6665C9.91667 6.05567 8.61084 4.74984 7 4.74984C5.38916 4.74984 4.08333 6.05567 4.08333 7.6665C4.08333 9.27734 5.38916 10.5832 7 10.5832Z" fill="#19B4BE"/>
</svg>