<svg width="217" height="53" viewBox="0 0 217 53" fill="none" xmlns="http://www.w3.org/2000/svg">
<g clip-path="url(#clip0_393_1387)">
<rect x="3.44482" y="3.44482" width="45.9519" height="45.9519" rx="22.976" fill="#19B4BE"/>
<circle cx="25.9" cy="19.4746" r="23.52" transform="rotate(-90 25.9 19.4746)" fill="white" fill-opacity="0.1"/>
<circle cx="25.9" cy="8.92431" r="23.52" transform="rotate(-90 25.9 8.92431)" fill="white" fill-opacity="0.1"/>
<circle cx="25.9" cy="-1.62598" r="23.52" transform="rotate(-90 25.9 -1.62598)" fill="white" fill-opacity="0.1"/>
</g>
<path d="M17.0108 20.8201C16.7791 21.2753 16.5745 21.7432 16.3878 22.1979C16.251 22.5229 16.1231 22.8509 16.0009 23.1846C15.5695 24.3044 15.1822 25.4412 14.7951 26.5775C14.2192 28.2678 13.6437 29.9571 12.9236 31.5883C11.542 34.7339 9.40129 37.6154 5.59393 37.6067C3.55791 37.6067 1.72549 36.7245 0.634766 34.9834C1.40845 35.0269 2.09488 34.7861 2.71442 34.2725C4.24249 32.9939 4.93015 31.0985 5.59316 29.2711C5.64192 29.1367 5.69054 29.0026 5.73936 28.8693C6.0638 27.9814 6.37792 27.0886 6.69218 26.1954C7.27665 24.5342 7.86159 22.8717 8.51417 21.2374C9.02899 19.9519 9.7096 18.6751 10.5851 17.6188C11.3559 16.6932 12.243 16.0461 13.3803 15.634C14.9713 15.0594 16.4866 14.9898 18.1067 15.4686C19.0637 15.7501 19.9479 16.1534 20.6838 16.8383C20.931 17.0704 21.1666 17.32 21.3818 17.584C21.3974 17.5918 21.406 17.6065 21.4077 17.6158L21.4109 17.6159C22.2951 18.6693 22.9757 19.949 23.4906 21.2345C24.1419 22.8675 24.7258 24.5273 25.3091 26.1855C25.6245 27.0821 25.9397 27.9782 26.2654 28.8692C26.2739 28.8929 26.2824 28.9167 26.2909 28.9405C26.3229 29.03 26.3553 29.1204 26.3894 29.2091C26.4124 29.144 26.4362 29.0797 26.4599 29.0159L26.4599 29.0156C26.4777 28.9676 26.4954 28.9199 26.5126 28.8722C26.837 27.9843 27.1511 27.0916 27.4654 26.1984L27.4654 26.1983L27.4655 26.198C28.05 24.5369 28.6348 22.8745 29.2874 21.2403C29.8022 19.9548 30.4828 18.678 31.3583 17.6218C32.1291 16.6961 33.0162 16.049 34.1535 15.6369C35.7416 15.0623 37.257 14.9927 38.8771 15.4715C39.834 15.753 40.7211 16.1563 41.4541 16.8412C41.7013 17.0733 41.9369 17.3229 42.1551 17.5869C42.1725 17.5927 42.1812 17.6101 42.1812 17.6188C43.0654 18.6722 43.7461 19.9519 44.2609 21.2374C44.9158 22.8729 45.5006 24.5367 46.0849 26.1991C46.3984 27.0911 46.7117 27.9826 47.0357 28.8692C47.0752 28.9785 47.1146 29.0883 47.1542 29.1983C47.819 31.0481 48.5123 32.9769 50.0606 34.2725C50.6831 34.7861 51.3695 35.0269 52.1432 34.9834C51.0525 36.7245 49.22 37.6067 47.184 37.6067C43.3767 37.6154 41.2272 34.7339 39.8514 31.5883C39.1301 29.9543 38.5539 28.263 37.977 26.57C37.5909 25.4368 37.2045 24.3027 36.7741 23.1846C36.3427 24.3044 35.9554 25.4412 35.5683 26.5775C34.9924 28.2678 34.4169 29.9571 33.6968 31.5883C32.4723 34.3711 30.6573 36.948 27.6208 37.4993C26.7162 37.6647 25.7825 37.6473 24.8867 37.4442C23.2811 37.0814 22.0246 36.1413 21.027 34.9109C21.8007 34.9544 22.8681 34.7861 23.4876 34.2725C23.6132 34.1675 23.733 34.0584 23.8476 33.9455C23.7339 34.0574 23.615 34.1655 23.4906 34.2696C22.871 34.7861 21.8036 34.9515 21.0299 34.908C20.2358 33.9329 19.6047 32.778 19.0811 31.5854C18.3598 29.9514 17.7836 28.2601 17.2067 26.5671C16.8206 25.4339 16.4342 24.2998 16.0038 23.1816C16.1231 22.8479 16.254 22.52 16.3907 22.195C16.5764 21.7413 16.7801 21.2744 17.0108 20.8201Z" fill="white"/>
<path d="M193.793 12.5271C192.05 12.5271 190.637 13.9401 190.637 15.6831V27.626C190.637 29.8052 192.403 31.5717 194.582 31.5717C195.907 31.5717 197.143 30.9071 197.874 29.8021L203.233 21.6957V28.4158C203.233 30.1587 204.646 31.5717 206.389 31.5717C208.132 31.5717 209.545 30.1587 209.545 28.4158V16.4561C209.545 14.2862 207.786 12.5271 205.616 12.5271C204.298 12.5271 203.068 13.188 202.34 14.2871L196.949 22.4303V15.6831C196.949 13.9401 195.536 12.5271 193.793 12.5271Z" fill="#087B83"/>
<path d="M195.534 10.2689C196.459 11.0489 197.973 11.4388 200.077 11.4388C202.181 11.4388 203.705 11.0489 204.648 10.2689C205.108 9.88837 205.456 9.41496 205.692 8.8487C206.145 7.75971 205.107 6.75928 203.927 6.75928H203.221C202.596 6.75928 202.159 7.24417 201.728 7.72321C201.614 7.8497 201.5 7.97577 201.383 8.0924C201.129 8.36447 200.694 8.5005 200.077 8.5005C199.461 8.5005 199.025 8.36447 198.771 8.0924C198.694 8.00297 198.617 7.90985 198.54 7.81626L198.54 7.81619L198.54 7.81606C198.111 7.29509 197.669 6.75928 197.01 6.75928H196.282C195.102 6.75928 194.065 7.75844 194.511 8.85031C194.742 9.41586 195.083 9.88873 195.534 10.2689Z" fill="#087B83"/>
<path fill-rule="evenodd" clip-rule="evenodd" d="M94.6042 32.007C92.5547 32.007 90.7137 31.5808 89.0813 30.7283C87.4489 29.8758 86.1702 28.6969 85.2452 27.1915C84.3201 25.6679 83.8576 23.9539 83.8576 22.0494C83.8576 20.1449 84.3201 18.44 85.2452 16.9346C86.1702 15.411 87.4489 14.223 89.0813 13.3705C90.7137 12.518 92.5547 12.0918 94.6042 12.0918C96.6538 12.0918 98.4948 12.518 100.127 13.3705C101.76 14.223 103.038 15.411 103.963 16.9346C104.888 18.44 105.351 20.1449 105.351 22.0494C105.351 23.9539 104.888 25.6679 103.963 27.1915C103.038 28.6969 101.76 29.8758 100.127 30.7283C98.4948 31.5808 96.6538 32.007 94.6042 32.007ZM94.6042 26.8106C95.4023 26.8106 96.1187 26.6201 96.7536 26.2392C97.4065 25.8402 97.9235 25.287 98.3043 24.5796C98.6852 23.8541 98.8757 23.0107 98.8757 22.0494C98.8757 21.0881 98.6852 20.2538 98.3043 19.5464C97.9235 18.8209 97.4065 18.2677 96.7536 17.8868C96.1187 17.4878 95.4023 17.2882 94.6042 17.2882C93.8062 17.2882 93.0807 17.4878 92.4277 17.8868C91.7929 18.2677 91.285 18.8209 90.9041 19.5464C90.5233 20.2538 90.3328 21.0881 90.3328 22.0494C90.3328 23.0107 90.5233 23.8541 90.9041 24.5796C91.285 25.287 91.7929 25.8402 92.4277 26.2392C93.0807 26.6201 93.8062 26.8106 94.6042 26.8106Z" fill="#087B83"/>
<path d="M78.6372 31.5717C77.0263 31.5717 75.7177 30.2712 75.7076 28.6604L75.6714 22.8928L72.2665 28.6274C71.8136 29.3901 70.9922 29.8577 70.1051 29.8577C69.2355 29.8577 68.4276 29.4082 67.9692 28.6692L64.5711 23.1921V28.647C64.5711 30.2623 63.2617 31.5717 61.6464 31.5717C60.0311 31.5717 58.7217 30.2623 58.7217 28.647V15.9088C58.7217 14.0411 60.2357 12.5271 62.1034 12.5271C63.2814 12.5271 64.3744 13.14 64.9888 14.1451L70.2029 22.6752L75.2625 14.1741C75.8703 13.1528 76.9709 12.5271 78.1594 12.5271C80.0174 12.5271 81.5251 14.0305 81.5304 15.8885L81.5669 28.6337C81.5715 30.255 80.2585 31.5717 78.6372 31.5717Z" fill="#087B83"/>
<path fill-rule="evenodd" clip-rule="evenodd" d="M121.428 13.3977C120.122 12.8173 118.59 12.5271 116.83 12.5271H109.724C108.585 12.5271 107.662 13.4505 107.662 14.5895V29.5093C107.662 30.6483 108.585 31.5717 109.724 31.5717H112.02C113.159 31.5717 114.082 30.6483 114.082 29.5093V26.8922H116.83C118.59 26.8922 120.122 26.602 121.428 26.0216C122.734 25.4412 123.741 24.6068 124.448 23.5186C125.156 22.4303 125.509 21.1607 125.509 19.7096C125.509 18.2586 125.156 16.989 124.448 15.9007C123.741 14.8124 122.734 13.9781 121.428 13.3977ZM118.381 21.3692C117.946 21.7501 117.293 21.9406 116.422 21.9406H114.082V17.4787H116.422C117.293 17.4787 117.946 17.6782 118.381 18.0772C118.816 18.4581 119.034 19.0023 119.034 19.7096C119.034 20.417 118.816 20.9702 118.381 21.3692Z" fill="#087B83"/>
<path d="M137.298 32.007C135.285 32.007 133.471 31.5899 131.857 30.7555C130.242 29.9031 128.973 28.7241 128.048 27.2187C127.141 25.6951 126.687 23.972 126.687 22.0494C126.687 20.1268 127.141 18.4128 128.048 16.9074C128.973 15.3838 130.242 14.2048 131.857 13.3705C133.471 12.518 135.285 12.0918 137.298 12.0918C139.148 12.0918 140.799 12.4183 142.25 13.0712C142.899 13.3636 143.498 13.7141 144.046 14.1228C145.192 14.9778 145.017 16.6364 143.95 17.5885C142.777 18.636 140.999 18.346 139.565 17.6996C138.957 17.4254 138.31 17.2882 137.625 17.2882C136.282 17.2882 135.203 17.7236 134.387 18.5942C133.571 19.4466 133.163 20.5984 133.163 22.0494C133.163 23.5004 133.571 24.6612 134.387 25.5319C135.203 26.3843 136.282 26.8106 137.625 26.8106C138.31 26.8106 138.957 26.6734 139.565 26.3992C140.999 25.7528 142.777 25.4628 143.95 26.5103C145.017 27.4625 145.192 29.121 144.046 29.976C143.498 30.3847 142.899 30.7352 142.25 31.0276C140.799 31.6806 139.148 32.007 137.298 32.007Z" fill="#087B83"/>
<path d="M164.041 26.9185L161.085 21.7773L164.109 16.8345C165.263 14.9485 163.905 12.5271 161.694 12.5271C160.678 12.5271 159.74 13.0718 159.236 13.9542L155.997 19.628H154.038V15.7375C154.038 13.9644 152.601 12.5271 150.828 12.5271C149.055 12.5271 147.618 13.9644 147.618 15.7375V28.3613C147.618 30.1344 149.055 31.5717 150.828 31.5717C152.601 31.5717 154.038 30.1344 154.038 28.3613V24.6884H155.834L158.605 29.9198C159.143 30.9361 160.199 31.5717 161.349 31.5717C163.737 31.5717 165.231 28.9887 164.041 26.9185Z" fill="#087B83"/>
<path fill-rule="evenodd" clip-rule="evenodd" d="M177.579 32.007C175.53 32.007 173.689 31.5808 172.056 30.7283C170.424 29.8758 169.145 28.6969 168.22 27.1915C167.295 25.6679 166.833 23.9539 166.833 22.0494C166.833 20.1449 167.295 18.44 168.22 16.9346C169.145 15.411 170.424 14.223 172.056 13.3705C173.689 12.518 175.53 12.0918 177.579 12.0918C179.629 12.0918 181.47 12.518 183.102 13.3705C184.734 14.223 186.013 15.411 186.938 16.9346C187.863 18.44 188.326 20.1449 188.326 22.0494C188.326 23.9539 187.863 25.6679 186.938 27.1915C186.013 28.6969 184.734 29.8758 183.102 30.7283C181.47 31.5808 179.629 32.007 177.579 32.007ZM177.579 26.8106C178.377 26.8106 179.094 26.6201 179.728 26.2392C180.381 25.8402 180.898 25.287 181.279 24.5796C181.66 23.8541 181.851 23.0107 181.851 22.0494C181.851 21.0881 181.66 20.2538 181.279 19.5464C180.898 18.8209 180.381 18.2677 179.728 17.8868C179.094 17.4878 178.377 17.2882 177.579 17.2882C176.781 17.2882 176.056 17.4878 175.403 17.8868C174.768 18.2677 174.26 18.8209 173.879 19.5464C173.498 20.2538 173.308 21.0881 173.308 22.0494C173.308 23.0107 173.498 23.8541 173.879 24.5796C174.26 25.287 174.768 25.8402 175.403 26.2392C176.056 26.6201 176.781 26.8106 177.579 26.8106Z" fill="#087B83"/>
<path fill-rule="evenodd" clip-rule="evenodd" d="M61.5977 37.7115C61.3142 37.5846 60.98 37.5212 60.595 37.5212H58.7673V41.9634H59.5923V40.6815H60.595C60.98 40.6815 61.3142 40.618 61.5977 40.4911C61.8853 40.3642 62.1053 40.1823 62.2576 39.9454C62.4099 39.7042 62.4861 39.4229 62.4861 39.1013C62.4861 38.7756 62.4099 38.4942 62.2576 38.2573C62.1053 38.0204 61.8853 37.8385 61.5977 37.7115ZM61.3755 39.755C61.1894 39.9073 60.9165 39.9834 60.5569 39.9834H59.5923V38.2192H60.5569C60.9165 38.2192 61.1894 38.2954 61.3755 38.4477C61.5617 38.6 61.6548 38.8179 61.6548 39.1013C61.6548 39.3848 61.5617 39.6027 61.3755 39.755Z" fill="#087B83"/>
<path d="M68.8194 41.9634V41.2717H66.3127V40.0469H68.4576V39.3679H66.3127V38.2129H68.7305V37.5212H65.4877V41.9634H68.8194Z" fill="#087B83"/>
<path fill-rule="evenodd" clip-rule="evenodd" d="M72.2457 41.9634L72.6836 40.9353H74.9047L75.3489 41.9634H76.212L74.2066 37.5212H73.3944L71.3954 41.9634H72.2457ZM73.7942 38.3462L74.6318 40.288H72.9628L73.7942 38.3462Z" fill="#087B83"/>
<path fill-rule="evenodd" clip-rule="evenodd" d="M82.5793 37.5212H79.1207V41.9634H81.1197C81.6824 41.9634 82.116 41.8449 82.4206 41.608C82.7252 41.3669 82.8775 41.0263 82.8775 40.5863C82.8775 40.1675 82.7379 39.8481 82.4587 39.6281C82.1837 39.4038 81.7797 39.2917 81.2466 39.2917H79.933V38.2002H82.5793V37.5212ZM81.7987 41.1448C81.6337 41.2674 81.3926 41.3288 81.0752 41.3288H79.933V39.9263H81.0752C81.7225 39.9263 82.0462 40.1548 82.0462 40.6117C82.0462 40.8444 81.9637 41.0221 81.7987 41.1448Z" fill="#087B83"/>
<path d="M86.8207 37.5212H86.0084V41.9634H86.7762L89.1623 38.8158V41.9634H89.9746V37.5212H89.2068L86.8207 40.6752V37.5212Z" fill="#087B83"/>
<path d="M97.1928 41.9634V37.5212H93.9246L93.8611 39.3615C93.8358 40.0215 93.7681 40.5059 93.6581 40.8148C93.5523 41.1194 93.3704 41.2717 93.1123 41.2717C93.0404 41.2717 92.9769 41.2632 92.9219 41.2463L92.8648 41.9634C93.0552 42.0057 93.2054 42.0269 93.3154 42.0269C93.6284 42.0269 93.8738 41.9274 94.0515 41.7286C94.2292 41.5255 94.3582 41.2315 94.4386 40.8465C94.519 40.4573 94.5698 39.9517 94.5909 39.3298L94.629 38.2192H96.3805V41.9634H97.1928Z" fill="#087B83"/>
<path d="M101.482 37.5212H100.67V41.9634H101.438L103.824 38.8158V41.9634H104.636V37.5212H103.868L101.482 40.6752V37.5212Z" fill="#087B83"/>
<path d="M109.854 38.2192H111.327V37.5212H107.57V38.2192H109.036V41.9634H109.854V38.2192Z" fill="#087B83"/>
<path fill-rule="evenodd" clip-rule="evenodd" d="M114.322 41.9634L114.76 40.9353H116.981L117.425 41.9634H118.288L116.283 37.5212H115.47L113.471 41.9634H114.322ZM115.87 38.3462L116.708 40.288H115.039L115.87 38.3462Z" fill="#087B83"/>
<path d="M125.728 42.9407V41.2653H125.068V37.5212H124.249V41.2653H122.009V37.5212H121.197V41.9634H124.966V42.9407H125.728Z" fill="#087B83"/>
<path d="M129.523 37.5212H128.71V41.9634H129.478L131.864 38.8158V41.9634H132.677V37.5212H131.909L129.523 40.6752V37.5212Z" fill="#087B83"/>
<path fill-rule="evenodd" clip-rule="evenodd" d="M136.975 41.7349C137.338 41.9296 137.747 42.0269 138.199 42.0269C138.652 42.0269 139.06 41.9296 139.424 41.7349C139.788 41.5361 140.074 41.2632 140.281 40.9163C140.488 40.5694 140.592 40.178 140.592 39.7423C140.592 39.3065 140.488 38.9152 140.281 38.5683C140.074 38.2213 139.788 37.9506 139.424 37.756C139.06 37.5571 138.652 37.4577 138.199 37.4577C137.747 37.4577 137.338 37.5571 136.975 37.756C136.611 37.9506 136.325 38.2235 136.118 38.5746C135.91 38.9215 135.807 39.3108 135.807 39.7423C135.807 40.1738 135.91 40.5652 136.118 40.9163C136.325 41.2632 136.611 41.5361 136.975 41.7349ZM138.999 41.1067C138.762 41.2378 138.495 41.3034 138.199 41.3034C137.903 41.3034 137.637 41.2378 137.4 41.1067C137.163 40.9713 136.977 40.7851 136.841 40.5482C136.706 40.3071 136.638 40.0384 136.638 39.7423C136.638 39.4461 136.706 39.1796 136.841 38.9427C136.977 38.7015 137.163 38.5154 137.4 38.3842C137.637 38.2488 137.903 38.1812 138.199 38.1812C138.495 38.1812 138.762 38.2488 138.999 38.3842C139.236 38.5154 139.422 38.7015 139.557 38.9427C139.693 39.1796 139.76 39.4461 139.76 39.7423C139.76 40.0384 139.693 40.3071 139.557 40.5482C139.422 40.7851 139.236 40.9713 138.999 41.1067Z" fill="#087B83"/>
<path d="M146.847 41.9634H147.672V37.5212H146.847V39.3552H144.55V37.5212H143.725V41.9634H144.55V40.0596H146.847V41.9634Z" fill="#087B83"/>
<path d="M154.262 41.9634H155.087V37.5212H154.262V39.3552H151.964V37.5212H151.139V41.9634H151.964V40.0596H154.262V41.9634Z" fill="#087B83"/>
<path fill-rule="evenodd" clip-rule="evenodd" d="M161.828 39.3869C161.545 39.1458 161.137 39.0252 160.604 39.0252H159.373V37.5212H158.56V41.9634H160.47C161.037 41.9634 161.477 41.8344 161.79 41.5763C162.103 41.314 162.26 40.9375 162.26 40.4467C162.26 39.9771 162.116 39.6238 161.828 39.3869ZM161.175 41.1067C161.001 41.2548 160.754 41.3288 160.432 41.3288H159.373V39.6534H160.432C161.101 39.6534 161.435 39.9221 161.435 40.4594C161.435 40.7428 161.348 40.9586 161.175 41.1067Z" fill="#087B83"/>
<path d="M163.713 37.5212H162.901V41.9634H163.713V37.5212Z" fill="#087B83"/>
<path d="M168.002 37.5212H167.189V41.9634H167.957L170.343 38.8158V41.9634H171.156V37.5212H170.388L168.002 40.6752V37.5212Z" fill="#087B83"/>
<path d="M168.3 36.9881C168.495 37.1446 168.782 37.2229 169.163 37.2229C169.54 37.2229 169.825 37.1446 170.02 36.9881C170.219 36.8273 170.32 36.5989 170.324 36.3027H169.753C169.749 36.4593 169.694 36.5798 169.588 36.6645C169.487 36.7491 169.345 36.7914 169.163 36.7914C168.977 36.7914 168.835 36.7491 168.738 36.6645C168.641 36.5798 168.59 36.4593 168.586 36.3027H168.008C168.012 36.6031 168.11 36.8316 168.3 36.9881Z" fill="#087B83"/>
<path d="M183.135 42.9407V41.2653H182.475V37.5212H181.656V41.2653H179.416V37.5212H178.604V41.9634H182.373V42.9407H183.135Z" fill="#087B83"/>
<path d="M189.443 41.9634V41.2717H186.936V40.0469H189.081V39.3679H186.936V38.2129H189.354V37.5212H186.111V41.9634H189.443Z" fill="#087B83"/>
<path d="M195.706 41.9634H196.531V37.5212H195.706V39.3552H193.408V37.5212H192.583V41.9634H193.408V40.0596H195.706V41.9634Z" fill="#087B83"/>
<path d="M201.749 38.2192H203.222V37.5212H199.465V38.2192H200.931V41.9634H201.749V38.2192Z" fill="#087B83"/>
<path fill-rule="evenodd" clip-rule="evenodd" d="M208.985 37.7115C208.701 37.5846 208.367 37.5212 207.982 37.5212H206.154V41.9634H206.979V40.6815H207.982C208.367 40.6815 208.701 40.618 208.985 40.4911C209.272 40.3642 209.492 40.1823 209.645 39.9454C209.797 39.7042 209.873 39.4229 209.873 39.1013C209.873 38.7756 209.797 38.4942 209.645 38.2573C209.492 38.0204 209.272 37.8385 208.985 37.7115ZM208.762 39.755C208.576 39.9073 208.303 39.9834 207.944 39.9834H206.979V38.2192H207.944C208.303 38.2192 208.576 38.2954 208.762 38.4477C208.949 38.6 209.042 38.8179 209.042 39.1013C209.042 39.3848 208.949 39.6027 208.762 39.755Z" fill="#087B83"/>
<defs>
<clipPath id="clip0_393_1387">
<rect x="3.44482" y="3.44482" width="45.9519" height="45.9519" rx="22.976" fill="white"/>
</clipPath>
</defs>
</svg>
