<svg width="226" height="50" viewBox="0 0 226 50" fill="none" xmlns="http://www.w3.org/2000/svg">
    <g clip-path="url(#clip0_408_921)">
        <path d="M46.3967 25.9208C46.3967 13.2315 36.11 2.94482 23.4208 2.94482C10.7315 2.94482 0.444824 13.2315 0.444824 25.9208C0.444824 38.61 10.7315 48.8967 23.4208 48.8967C36.11 48.8967 46.3967 38.61 46.3967 25.9208Z" fill="#19B4BE"/>
        <path d="M46.4199 18.9746C46.4199 5.98489 35.8896 -4.54537 22.8999 -4.54537C9.91015 -4.54537 -0.620117 5.98489 -0.620117 18.9746C-0.620117 31.9644 9.91015 42.4946 22.8999 42.4946C35.8896 42.4946 46.4199 31.9644 46.4199 18.9746Z" fill="white" fill-opacity="0.1"/>
        <path d="M46.4199 8.42434C46.4199 -4.5654 35.8896 -15.0957 22.8999 -15.0957C9.91015 -15.0957 -0.620117 -4.5654 -0.620117 8.42434C-0.620117 21.4141 9.91015 31.9443 22.8999 31.9443C35.8896 31.9443 46.4199 21.4141 46.4199 8.42434Z" fill="white" fill-opacity="0.1"/>
        <path d="M46.4199 -2.12596C46.4199 -15.1157 35.8896 -25.646 22.8999 -25.646C9.91015 -25.646 -0.620117 -15.1157 -0.620117 -2.12596C-0.620117 10.8638 9.91015 21.394 22.8999 21.394C35.8896 21.394 46.4199 10.8638 46.4199 -2.12596Z" fill="white" fill-opacity="0.1"/>
        <path d="M14.0108 20.3201C13.7791 20.7753 13.5745 21.2432 13.3878 21.6979C13.251 22.0229 13.1231 22.3509 13.0009 22.6846C12.5695 23.8044 12.1822 24.9412 11.7951 26.0775C11.2192 27.7678 10.6437 29.4571 9.9236 31.0883C8.542 34.2339 6.40129 37.1154 2.59393 37.1067C0.557909 37.1067 -1.27451 36.2245 -2.36523 34.4834C-1.59155 34.5269 -0.90512 34.2861 -0.28558 33.7725C1.24249 32.4939 1.93015 30.5985 2.59316 28.7711C2.64192 28.6367 2.69054 28.5026 2.73936 28.3693C3.0638 27.4814 3.37792 26.5886 3.69218 25.6954C4.27665 24.0342 4.86159 22.3717 5.51417 20.7374C6.02899 19.4519 6.7096 18.1751 7.5851 17.1188C8.3559 16.1932 9.243 15.5461 10.3803 15.134C11.9713 14.5594 13.4866 14.4898 15.1067 14.9686C16.0637 15.2501 16.9479 15.6534 17.6838 16.3383C17.931 16.5704 18.1666 16.82 18.3818 17.084C18.3974 17.0918 18.406 17.1065 18.4077 17.1158L18.4109 17.1159C19.2951 18.1693 19.9757 19.449 20.4906 20.7345C21.1419 22.3675 21.7258 24.0273 22.3091 25.6855C22.6245 26.5821 22.9397 27.4782 23.2654 28.3692C23.2739 28.3929 23.2824 28.4167 23.2909 28.4405C23.3229 28.53 23.3553 28.6204 23.3894 28.7091C23.4124 28.644 23.4362 28.5797 23.4599 28.5159V28.5156C23.4777 28.4676 23.4954 28.4199 23.5126 28.3722C23.837 27.4843 24.1511 26.5916 24.4654 25.6984V25.6983L24.4655 25.698C25.05 24.0369 25.6348 22.3745 26.2874 20.7403C26.8022 19.4548 27.4828 18.178 28.3583 17.1218C29.1291 16.1961 30.0162 15.549 31.1535 15.1369C32.7416 14.5623 34.257 14.4927 35.8771 14.9715C36.834 15.253 37.7211 15.6563 38.4541 16.3412C38.7013 16.5733 38.9369 16.8229 39.1551 17.0869C39.1725 17.0927 39.1812 17.1101 39.1812 17.1188C40.0654 18.1722 40.7461 19.4519 41.2609 20.7374C41.9158 22.3729 42.5006 24.0367 43.0849 25.6991C43.3984 26.5911 43.7117 27.4826 44.0357 28.3692C44.0752 28.4786 44.1146 28.5883 44.1542 28.6983C44.819 30.5481 45.5123 32.4769 47.0606 33.7725C47.6831 34.2861 48.3695 34.5269 49.1432 34.4834C48.0525 36.2245 46.22 37.1067 44.184 37.1067C40.3767 37.1154 38.2272 34.2339 36.8514 31.0883C36.1301 29.4543 35.5539 27.763 34.977 26.07C34.5909 24.9368 34.2045 23.8027 33.7741 22.6846C33.3427 23.8044 32.9554 24.9412 32.5683 26.0775C31.9924 27.7678 31.4169 29.4571 30.6968 31.0883C29.4723 33.8711 27.6573 36.448 24.6208 36.9993C23.7162 37.1647 22.7825 37.1473 21.8867 36.9442C20.2811 36.5814 19.0246 35.6413 18.027 34.4109C18.8007 34.4544 19.8681 34.2861 20.4876 33.7725C20.6132 33.6675 20.733 33.5584 20.8476 33.4455C20.7339 33.5574 20.615 33.6655 20.4906 33.7696C19.871 34.2861 18.8036 34.4515 18.0299 34.408C17.2358 33.4329 16.6047 32.278 16.0811 31.0854C15.3598 29.4514 14.7835 27.7601 14.2067 26.0671C13.8206 24.9339 13.4342 23.7998 13.0038 22.6816C13.1231 22.3479 13.254 22.02 13.3907 21.695C13.5764 21.2413 13.7801 20.7744 14.0108 20.3201Z" fill="white"/>
    </g>
    <path d="M62.1 25V9.936H66.664L72.348 20.24H70.528L76.604 9.936H80.692L80.748 25H76.8V14.416L77.472 14.864L72.292 23.544H70.444L65.236 14.556L66.048 14.36V25H62.1ZM91.988 25.224C90.3827 25.224 88.9547 24.888 87.704 24.216C86.472 23.544 85.492 22.6293 84.764 21.472C84.0547 20.296 83.7 18.9613 83.7 17.468C83.7 15.956 84.0547 14.6213 84.764 13.464C85.492 12.288 86.472 11.3733 87.704 10.72C88.9547 10.048 90.3827 9.712 91.988 9.712C93.5747 9.712 94.9934 10.048 96.244 10.72C97.4947 11.3733 98.4747 12.2787 99.184 13.436C99.8934 14.5933 100.248 15.9373 100.248 17.468C100.248 18.9613 99.8934 20.296 99.184 21.472C98.4747 22.6293 97.4947 23.544 96.244 24.216C94.9934 24.888 93.5747 25.224 91.988 25.224ZM91.988 21.64C92.716 21.64 93.3694 21.472 93.948 21.136C94.5267 20.8 94.984 20.324 95.32 19.708C95.656 19.0733 95.824 18.3267 95.824 17.468C95.824 16.5907 95.656 15.844 95.32 15.228C94.984 14.612 94.5267 14.136 93.948 13.8C93.3694 13.464 92.716 13.296 91.988 13.296C91.26 13.296 90.6067 13.464 90.028 13.8C89.4494 14.136 88.9827 14.612 88.628 15.228C88.292 15.844 88.124 16.5907 88.124 17.468C88.124 18.3267 88.292 19.0733 88.628 19.708C88.9827 20.324 89.4494 20.8 90.028 21.136C90.6067 21.472 91.26 21.64 91.988 21.64ZM112.128 25.224C110.859 25.224 109.748 24.944 108.796 24.384C107.844 23.824 107.098 22.9747 106.556 21.836C106.034 20.6787 105.772 19.2227 105.772 17.468C105.772 15.6947 106.024 14.2387 106.528 13.1C107.032 11.9613 107.76 11.112 108.712 10.552C109.664 9.992 110.803 9.712 112.128 9.712C113.547 9.712 114.816 10.0387 115.936 10.692C117.075 11.3267 117.971 12.2227 118.624 13.38C119.296 14.5373 119.632 15.9 119.632 17.468C119.632 19.0547 119.296 20.4267 118.624 21.584C117.971 22.7413 117.075 23.6373 115.936 24.272C114.816 24.9067 113.547 25.224 112.128 25.224ZM103.224 30.432V9.936H107.396V13.016L107.312 17.496L107.592 21.948V30.432H103.224ZM111.372 21.64C112.1 21.64 112.744 21.472 113.304 21.136C113.883 20.8 114.34 20.324 114.676 19.708C115.031 19.0733 115.208 18.3267 115.208 17.468C115.208 16.5907 115.031 15.844 114.676 15.228C114.34 14.612 113.883 14.136 113.304 13.8C112.744 13.464 112.1 13.296 111.372 13.296C110.644 13.296 109.991 13.464 109.412 13.8C108.834 14.136 108.376 14.612 108.04 15.228C107.704 15.844 107.536 16.5907 107.536 17.468C107.536 18.3267 107.704 19.0733 108.04 19.708C108.376 20.324 108.834 20.8 109.412 21.136C109.991 21.472 110.644 21.64 111.372 21.64ZM129.862 25.224C128.238 25.224 126.791 24.8973 125.522 24.244C124.252 23.572 123.254 22.648 122.526 21.472C121.816 20.296 121.462 18.9613 121.462 17.468C121.462 15.956 121.816 14.6213 122.526 13.464C123.254 12.288 124.252 11.3733 125.522 10.72C126.791 10.048 128.238 9.712 129.862 9.712C131.448 9.712 132.83 10.048 134.006 10.72C135.182 11.3733 136.05 12.316 136.61 13.548L133.222 15.368C132.83 14.6587 132.335 14.136 131.738 13.8C131.159 13.464 130.524 13.296 129.834 13.296C129.087 13.296 128.415 13.464 127.818 13.8C127.22 14.136 126.744 14.612 126.39 15.228C126.054 15.844 125.886 16.5907 125.886 17.468C125.886 18.3453 126.054 19.092 126.39 19.708C126.744 20.324 127.22 20.8 127.818 21.136C128.415 21.472 129.087 21.64 129.834 21.64C130.524 21.64 131.159 21.4813 131.738 21.164C132.335 20.828 132.83 20.296 133.222 19.568L136.61 21.416C136.05 22.6293 135.182 23.572 134.006 24.244C132.83 24.8973 131.448 25.224 129.862 25.224ZM149.932 25L144.892 17.86L148.448 15.76L155.084 25H149.932ZM139.264 25V9.936H143.632V25H139.264ZM142.344 19.288V15.788H147.608V19.288H142.344ZM148.868 17.972L144.78 17.524L150.072 9.936H154.72L148.868 17.972ZM163.82 25.224C162.215 25.224 160.787 24.888 159.536 24.216C158.304 23.544 157.324 22.6293 156.596 21.472C155.887 20.296 155.532 18.9613 155.532 17.468C155.532 15.956 155.887 14.6213 156.596 13.464C157.324 12.288 158.304 11.3733 159.536 10.72C160.787 10.048 162.215 9.712 163.82 9.712C165.407 9.712 166.825 10.048 168.076 10.72C169.327 11.3733 170.307 12.2787 171.016 13.436C171.725 14.5933 172.08 15.9373 172.08 17.468C172.08 18.9613 171.725 20.296 171.016 21.472C170.307 22.6293 169.327 23.544 168.076 24.216C166.825 24.888 165.407 25.224 163.82 25.224ZM163.82 21.64C164.548 21.64 165.201 21.472 165.78 21.136C166.359 20.8 166.816 20.324 167.152 19.708C167.488 19.0733 167.656 18.3267 167.656 17.468C167.656 16.5907 167.488 15.844 167.152 15.228C166.816 14.612 166.359 14.136 165.78 13.8C165.201 13.464 164.548 13.296 163.82 13.296C163.092 13.296 162.439 13.464 161.86 13.8C161.281 14.136 160.815 14.612 160.46 15.228C160.124 15.844 159.956 16.5907 159.956 17.468C159.956 18.3267 160.124 19.0733 160.46 19.708C160.815 20.324 161.281 20.8 161.86 21.136C162.439 21.472 163.092 21.64 163.82 21.64ZM175.084 25V9.936H179.424V18.896L186.76 9.936H190.764V25H186.424V16.04L179.116 25H175.084ZM182.644 8.312C181.002 8.312 179.77 7.95733 178.948 7.248C178.127 6.52 177.707 5.428 177.688 3.972H180.544C180.563 4.60667 180.74 5.11067 181.076 5.484C181.412 5.85733 181.926 6.044 182.616 6.044C183.288 6.044 183.802 5.85733 184.156 5.484C184.53 5.11067 184.716 4.60667 184.716 3.972H187.628C187.628 5.428 187.208 6.52 186.368 7.248C185.528 7.95733 184.287 8.312 182.644 8.312Z" fill="#087B83"/>
    <path d="M64.464 43.06C63.92 43.06 63.428 42.936 62.988 42.688C62.548 42.432 62.196 42.068 61.932 41.596C61.676 41.116 61.548 40.532 61.548 39.844C61.548 39.156 61.676 38.576 61.932 38.104C62.188 37.624 62.536 37.26 62.976 37.012C63.416 36.764 63.912 36.64 64.464 36.64C65.064 36.64 65.6 36.776 66.072 37.048C66.552 37.312 66.928 37.688 67.2 38.176C67.472 38.656 67.608 39.212 67.608 39.844C67.608 40.484 67.472 41.044 67.2 41.524C66.928 42.004 66.552 42.38 66.072 42.652C65.6 42.924 65.064 43.06 64.464 43.06ZM61.212 45.328V36.7H62.028V38.596L61.944 39.856L62.064 41.128V45.328H61.212ZM64.404 42.304C64.852 42.304 65.252 42.204 65.604 42.004C65.956 41.796 66.236 41.508 66.444 41.14C66.652 40.764 66.756 40.332 66.756 39.844C66.756 39.356 66.652 38.928 66.444 38.56C66.236 38.192 65.956 37.904 65.604 37.696C65.252 37.488 64.852 37.384 64.404 37.384C63.956 37.384 63.552 37.488 63.192 37.696C62.84 37.904 62.56 38.192 62.352 38.56C62.152 38.928 62.052 39.356 62.052 39.844C62.052 40.332 62.152 40.764 62.352 41.14C62.56 41.508 62.84 41.796 63.192 42.004C63.552 42.204 63.956 42.304 64.404 42.304ZM72.1386 43.06C71.4826 43.06 70.9066 42.924 70.4106 42.652C69.9146 42.372 69.5266 41.992 69.2466 41.512C68.9666 41.024 68.8266 40.468 68.8266 39.844C68.8266 39.22 68.9586 38.668 69.2226 38.188C69.4946 37.708 69.8626 37.332 70.3266 37.06C70.7986 36.78 71.3266 36.64 71.9106 36.64C72.5026 36.64 73.0266 36.776 73.4826 37.048C73.9466 37.312 74.3106 37.688 74.5746 38.176C74.8386 38.656 74.9706 39.212 74.9706 39.844C74.9706 39.884 74.9666 39.928 74.9586 39.976C74.9586 40.016 74.9586 40.06 74.9586 40.108H69.4746V39.472H74.5026L74.1666 39.724C74.1666 39.268 74.0666 38.864 73.8666 38.512C73.6746 38.152 73.4106 37.872 73.0746 37.672C72.7386 37.472 72.3506 37.372 71.9106 37.372C71.4786 37.372 71.0906 37.472 70.7466 37.672C70.4026 37.872 70.1346 38.152 69.9426 38.512C69.7506 38.872 69.6546 39.284 69.6546 39.748V39.88C69.6546 40.36 69.7586 40.784 69.9666 41.152C70.1826 41.512 70.4786 41.796 70.8546 42.004C71.2386 42.204 71.6746 42.304 72.1626 42.304C72.5466 42.304 72.9026 42.236 73.2306 42.1C73.5666 41.964 73.8546 41.756 74.0946 41.476L74.5746 42.028C74.2946 42.364 73.9426 42.62 73.5186 42.796C73.1026 42.972 72.6426 43.06 72.1386 43.06ZM80.5928 43V41.608L80.5568 41.38V39.052C80.5568 38.516 80.4048 38.104 80.1008 37.816C79.8048 37.528 79.3608 37.384 78.7688 37.384C78.3608 37.384 77.9728 37.452 77.6048 37.588C77.2368 37.724 76.9248 37.904 76.6688 38.128L76.2848 37.492C76.6048 37.22 76.9888 37.012 77.4368 36.868C77.8848 36.716 78.3568 36.64 78.8528 36.64C79.6688 36.64 80.2968 36.844 80.7368 37.252C81.1848 37.652 81.4088 38.264 81.4088 39.088V43H80.5928ZM78.4208 43.06C77.9488 43.06 77.5368 42.984 77.1848 42.832C76.8408 42.672 76.5768 42.456 76.3928 42.184C76.2088 41.904 76.1168 41.584 76.1168 41.224C76.1168 40.896 76.1928 40.6 76.3448 40.336C76.5048 40.064 76.7608 39.848 77.1128 39.688C77.4728 39.52 77.9528 39.436 78.5527 39.436H80.7248V40.072H78.5768C77.9688 40.072 77.5448 40.18 77.3048 40.396C77.0728 40.612 76.9568 40.88 76.9568 41.2C76.9568 41.56 77.0968 41.848 77.3768 42.064C77.6568 42.28 78.0488 42.388 78.5527 42.388C79.0328 42.388 79.4448 42.28 79.7888 42.064C80.1408 41.84 80.3968 41.52 80.5568 41.104L80.7488 41.692C80.5888 42.108 80.3088 42.44 79.9088 42.688C79.5168 42.936 79.0208 43.06 78.4208 43.06ZM86.5088 43.072C85.9968 43.072 85.5408 42.988 85.1408 42.82C84.7488 42.652 84.4128 42.396 84.1328 42.052C83.8528 41.708 83.6408 41.284 83.4968 40.78C83.3528 40.268 83.2808 39.676 83.2808 39.004C83.2808 38.404 83.3368 37.88 83.4488 37.432C83.5608 36.976 83.7168 36.584 83.9168 36.256C84.1168 35.928 84.3488 35.652 84.6128 35.428C84.8848 35.196 85.1768 35.012 85.4888 34.876C85.8088 34.732 86.1368 34.624 86.4728 34.552L89.3048 33.892L89.4488 34.684L86.7848 35.284C86.6168 35.324 86.4128 35.38 86.1728 35.452C85.9408 35.524 85.7008 35.632 85.4528 35.776C85.2128 35.92 84.9888 36.12 84.7808 36.376C84.5728 36.632 84.4048 36.964 84.2768 37.372C84.1568 37.772 84.0968 38.272 84.0968 38.872C84.0968 39 84.1008 39.104 84.1088 39.184C84.1168 39.256 84.1248 39.336 84.1328 39.424C84.1488 39.504 84.1608 39.624 84.1688 39.784L83.7968 39.472C83.8848 38.984 84.0648 38.56 84.3368 38.2C84.6088 37.832 84.9488 37.548 85.3568 37.348C85.7728 37.14 86.2328 37.036 86.7368 37.036C87.3208 37.036 87.8408 37.164 88.2968 37.42C88.7528 37.668 89.1088 38.016 89.3648 38.464C89.6288 38.912 89.7608 39.432 89.7608 40.024C89.7608 40.608 89.6248 41.132 89.3528 41.596C89.0888 42.06 88.7128 42.424 88.2248 42.688C87.7368 42.944 87.1648 43.072 86.5088 43.072ZM86.6048 42.364C87.0528 42.364 87.4488 42.264 87.7928 42.064C88.1368 41.856 88.4048 41.576 88.5968 41.224C88.7968 40.872 88.8968 40.476 88.8968 40.036C88.8968 39.604 88.7968 39.22 88.5968 38.884C88.4048 38.548 88.1368 38.284 87.7928 38.092C87.4488 37.892 87.0488 37.792 86.5928 37.792C86.1448 37.792 85.7488 37.888 85.4048 38.08C85.0608 38.264 84.7888 38.524 84.5888 38.86C84.3968 39.196 84.3008 39.584 84.3008 40.024C84.3008 40.464 84.3968 40.86 84.5888 41.212C84.7888 41.564 85.0608 41.844 85.4048 42.052C85.7568 42.26 86.1568 42.364 86.6048 42.364ZM91.587 43V36.7H92.439V41.704L96.651 36.7H97.407V43H96.555V37.984L92.355 43H91.587ZM98.6967 42.988L98.7567 42.256C98.8127 42.264 98.8647 42.276 98.9127 42.292C98.9687 42.3 99.0167 42.304 99.0567 42.304C99.3127 42.304 99.5167 42.208 99.6687 42.016C99.8287 41.824 99.9487 41.568 100.029 41.248C100.109 40.928 100.165 40.568 100.197 40.168C100.229 39.76 100.257 39.352 100.281 38.944L100.389 36.7H105.009V43H104.157V37.192L104.373 37.444H100.941L101.145 37.18L101.049 39.004C101.025 39.548 100.981 40.068 100.917 40.564C100.861 41.06 100.769 41.496 100.641 41.872C100.521 42.248 100.353 42.544 100.137 42.76C99.9207 42.968 99.6447 43.072 99.3087 43.072C99.2127 43.072 99.1127 43.064 99.0087 43.048C98.9127 43.032 98.8087 43.012 98.6967 42.988ZM107.431 43V36.7H108.283V41.704L112.495 36.7H113.251V43H112.399V37.984L108.199 43H107.431ZM116.892 43V37.216L117.108 37.444H114.504V36.7H120.132V37.444H117.528L117.744 37.216V43H116.892ZM125.276 43V41.608L125.24 41.38V39.052C125.24 38.516 125.088 38.104 124.784 37.816C124.488 37.528 124.044 37.384 123.452 37.384C123.044 37.384 122.656 37.452 122.288 37.588C121.92 37.724 121.608 37.904 121.352 38.128L120.968 37.492C121.288 37.22 121.672 37.012 122.12 36.868C122.568 36.716 123.04 36.64 123.536 36.64C124.352 36.64 124.98 36.844 125.42 37.252C125.868 37.652 126.092 38.264 126.092 39.088V43H125.276ZM123.104 43.06C122.632 43.06 122.22 42.984 121.868 42.832C121.524 42.672 121.26 42.456 121.076 42.184C120.892 41.904 120.8 41.584 120.8 41.224C120.8 40.896 120.876 40.6 121.028 40.336C121.188 40.064 121.444 39.848 121.796 39.688C122.156 39.52 122.636 39.436 123.236 39.436H125.408V40.072H123.26C122.652 40.072 122.228 40.18 121.988 40.396C121.756 40.612 121.64 40.88 121.64 41.2C121.64 41.56 121.78 41.848 122.06 42.064C122.34 42.28 122.732 42.388 123.236 42.388C123.716 42.388 124.128 42.28 124.472 42.064C124.824 41.84 125.08 41.52 125.24 41.104L125.432 41.692C125.272 42.108 124.992 42.44 124.592 42.688C124.2 42.936 123.704 43.06 123.104 43.06ZM128.36 43V36.7H129.212V42.256H133.064V36.7H133.916V43H128.36ZM134.132 44.524V42.928L134.348 43H133.064V42.256H134.936V44.524H134.132ZM136.564 43V36.7H137.416V41.704L141.628 36.7H142.384V43H141.532V37.984L137.332 43H136.564ZM147.417 43.06C146.809 43.06 146.261 42.924 145.773 42.652C145.293 42.372 144.913 41.992 144.633 41.512C144.353 41.024 144.213 40.468 144.213 39.844C144.213 39.212 144.353 38.656 144.633 38.176C144.913 37.696 145.293 37.32 145.773 37.048C146.253 36.776 146.801 36.64 147.417 36.64C148.041 36.64 148.593 36.776 149.073 37.048C149.561 37.32 149.941 37.696 150.213 38.176C150.493 38.656 150.633 39.212 150.633 39.844C150.633 40.468 150.493 41.024 150.213 41.512C149.941 41.992 149.561 42.372 149.073 42.652C148.585 42.924 148.033 43.06 147.417 43.06ZM147.417 42.304C147.873 42.304 148.277 42.204 148.629 42.004C148.981 41.796 149.257 41.508 149.457 41.14C149.665 40.764 149.769 40.332 149.769 39.844C149.769 39.348 149.665 38.916 149.457 38.548C149.257 38.18 148.981 37.896 148.629 37.696C148.277 37.488 147.877 37.384 147.429 37.384C146.981 37.384 146.581 37.488 146.229 37.696C145.877 37.896 145.597 38.18 145.389 38.548C145.181 38.916 145.077 39.348 145.077 39.844C145.077 40.332 145.181 40.764 145.389 41.14C145.597 41.508 145.877 41.796 146.229 42.004C146.581 42.204 146.977 42.304 147.417 42.304ZM152.454 43V36.7H153.306V39.484H157.278V36.7H158.13V43H157.278V40.216H153.306V43H152.454ZM160.552 43V36.7H161.404V39.484H165.376V36.7H166.228V43H165.376V40.216H161.404V43H160.552ZM174.794 43V36.7H175.646V43H174.794ZM171.302 38.92C172.094 38.928 172.698 39.104 173.114 39.448C173.53 39.792 173.738 40.288 173.738 40.936C173.738 41.608 173.514 42.124 173.066 42.484C172.618 42.844 171.978 43.02 171.146 43.012L168.65 43V36.7H169.502V38.896L171.302 38.92ZM171.086 42.364C171.678 42.372 172.122 42.256 172.418 42.016C172.722 41.768 172.874 41.408 172.874 40.936C172.874 40.464 172.726 40.12 172.43 39.904C172.134 39.68 171.686 39.564 171.086 39.556L169.502 39.532V42.34L171.086 42.364ZM178.071 43V36.7H178.923V41.704L183.135 36.7H183.891V43H183.039V37.984L178.839 43H178.071ZM180.927 35.788C180.399 35.788 179.971 35.656 179.643 35.392C179.323 35.12 179.155 34.732 179.139 34.228H179.751C179.759 34.548 179.871 34.8 180.087 34.984C180.303 35.168 180.583 35.26 180.927 35.26C181.271 35.26 181.551 35.168 181.767 34.984C181.991 34.8 182.107 34.548 182.115 34.228H182.727C182.719 34.732 182.551 35.12 182.223 35.392C181.895 35.656 181.463 35.788 180.927 35.788ZM189.474 43V36.7H190.326V42.256H194.178V36.7H195.03V43H189.474ZM195.246 44.524V42.928L195.462 43H194.178V42.256H196.05V44.524H195.246ZM200.377 43.06C199.721 43.06 199.145 42.924 198.649 42.652C198.153 42.372 197.765 41.992 197.485 41.512C197.205 41.024 197.065 40.468 197.065 39.844C197.065 39.22 197.197 38.668 197.461 38.188C197.733 37.708 198.101 37.332 198.565 37.06C199.037 36.78 199.565 36.64 200.149 36.64C200.741 36.64 201.265 36.776 201.721 37.048C202.185 37.312 202.549 37.688 202.813 38.176C203.077 38.656 203.209 39.212 203.209 39.844C203.209 39.884 203.205 39.928 203.197 39.976C203.197 40.016 203.197 40.06 203.197 40.108H197.713V39.472H202.741L202.405 39.724C202.405 39.268 202.305 38.864 202.105 38.512C201.913 38.152 201.649 37.872 201.313 37.672C200.977 37.472 200.589 37.372 200.149 37.372C199.717 37.372 199.329 37.472 198.985 37.672C198.641 37.872 198.373 38.152 198.181 38.512C197.989 38.872 197.893 39.284 197.893 39.748V39.88C197.893 40.36 197.997 40.784 198.205 41.152C198.421 41.512 198.717 41.796 199.093 42.004C199.477 42.204 199.913 42.304 200.401 42.304C200.785 42.304 201.141 42.236 201.469 42.1C201.805 41.964 202.093 41.756 202.333 41.476L202.813 42.028C202.533 42.364 202.181 42.62 201.757 42.796C201.341 42.972 200.881 43.06 200.377 43.06ZM205.095 43V36.7H205.947V39.484H209.919V36.7H210.771V43H209.919V40.216H205.947V43H205.095ZM214.392 43V37.216L214.608 37.444H212.004V36.7H217.632V37.444H215.028L215.244 37.216V43H214.392ZM222.116 43.06C221.572 43.06 221.08 42.936 220.64 42.688C220.2 42.432 219.848 42.068 219.584 41.596C219.328 41.116 219.2 40.532 219.2 39.844C219.2 39.156 219.328 38.576 219.584 38.104C219.84 37.624 220.188 37.26 220.628 37.012C221.068 36.764 221.564 36.64 222.116 36.64C222.716 36.64 223.252 36.776 223.724 37.048C224.204 37.312 224.58 37.688 224.852 38.176C225.124 38.656 225.26 39.212 225.26 39.844C225.26 40.484 225.124 41.044 224.852 41.524C224.58 42.004 224.204 42.38 223.724 42.652C223.252 42.924 222.716 43.06 222.116 43.06ZM218.864 45.328V36.7H219.68V38.596L219.596 39.856L219.716 41.128V45.328H218.864ZM222.056 42.304C222.504 42.304 222.904 42.204 223.256 42.004C223.608 41.796 223.888 41.508 224.096 41.14C224.304 40.764 224.408 40.332 224.408 39.844C224.408 39.356 224.304 38.928 224.096 38.56C223.888 38.192 223.608 37.904 223.256 37.696C222.904 37.488 222.504 37.384 222.056 37.384C221.608 37.384 221.204 37.488 220.844 37.696C220.492 37.904 220.212 38.192 220.004 38.56C219.804 38.928 219.704 39.356 219.704 39.844C219.704 40.332 219.804 40.764 220.004 41.14C220.212 41.508 220.492 41.796 220.844 42.004C221.204 42.204 221.608 42.304 222.056 42.304Z" fill="#087B83"/>
    <defs>
        <clipPath id="clip0_408_921">
            <rect width="47" height="50" fill="white"/>
        </clipPath>
    </defs>
</svg>
