<svg xmlns="http://www.w3.org/2000/svg" width="40" height="40" viewBox="0 0 40 40" fill="none">
    <rect width="40" height="40" rx="12" fill="#19B4BE"/>
    <path d="M23.2416 30.7904C14.54 28.4027 11.0672 21.5522 9.6852 16.2261C9.26491 14.6129 9.56766 12.8968 10.5151 11.5217C11.4697 10.1289 12.9763 9.21573 14.6504 9.01675C15.7368 8.88529 16.7804 9.53906 17.1366 10.573L18.1303 13.4653C18.4509 14.4033 18.1303 15.4017 17.2719 16.1337L16.0324 17.1854C15.6976 17.4697 15.5587 17.928 15.6833 18.3544C16.7483 22.0319 19.5301 23.6734 21.0938 24.3237C21.5069 24.4978 21.9807 24.4018 22.3048 24.0785L23.5514 22.8349C24.2709 22.1207 25.3609 21.9466 26.2656 22.4085L29.2255 23.9186C30.1943 24.4125 30.6894 25.4926 30.4329 26.5444C30.0554 28.0935 29.0901 29.3904 27.7152 30.197C26.8105 30.7264 25.8025 31 24.7838 31C24.2674 31 23.7509 30.9289 23.2416 30.7904Z" fill="white"/>
</svg>