<svg width="14" height="15" viewBox="0 0 14 15" fill="none" xmlns="http://www.w3.org/2000/svg">
<path d="M9.16078 14.8598C3.3599 13.2316 1.04477 8.56029 0.123466 4.92841C-0.156724 3.82842 0.0451073 2.65818 0.676722 1.72053C1.31309 0.770759 2.3175 0.148081 3.43351 0.0124006C4.15773 -0.0772457 4.85345 0.368563 5.0909 1.07362L5.75338 3.04584C5.96709 3.68547 5.75338 4.3663 5.18113 4.86541L4.35481 5.58258C4.13161 5.77641 4.039 6.08896 4.12211 6.37971C4.83208 8.88738 6.68656 10.0067 7.72896 10.4501C8.0044 10.5689 8.32021 10.5034 8.53629 10.283L9.36736 9.43495C9.847 8.94795 10.5736 8.82923 11.1767 9.14421L13.1499 10.1739C13.7958 10.5107 14.1258 11.2473 13.9549 11.9644C13.7032 13.0208 13.0597 13.9051 12.1431 14.4551C11.54 14.8161 10.868 15.0027 10.1889 15.0027C9.84463 15.0027 9.50033 14.9543 9.16078 14.8598Z" fill="#19B4BE"/>
</svg>
