<svg width="14" height="16" viewBox="0 0 14 16" fill="none" xmlns="http://www.w3.org/2000/svg">
    <path d="M9.16078 15.3578C3.3599 13.7296 1.04477 9.05834 0.123466 5.42646C-0.156724 4.32647 0.045107 3.15623 0.676722 2.21858C1.31309 1.26881 2.3175 0.646128 3.43351 0.510447C4.15773 0.420801 4.85345 0.86661 5.0909 1.57167L5.75338 3.54389C5.96709 4.18352 5.75338 4.86435 5.18113 5.36346L4.35481 6.08063C4.13161 6.27446 4.039 6.58701 4.12211 6.87776C4.83208 9.38543 6.68656 10.5047 7.72896 10.9481C8.0044 11.0669 8.32021 11.0014 8.53629 10.781L9.36736 9.933C9.847 9.446 10.5736 9.32728 11.1767 9.64226L13.1499 10.6719C13.7958 11.0087 14.1258 11.7453 13.9549 12.4624C13.7032 13.5188 13.0597 14.4031 12.1431 14.9531C11.54 15.3141 10.868 15.5007 10.1889 15.5007C9.84463 15.5007 9.50033 15.4523 9.16078 15.3578Z" fill="#19B4BE"/>
</svg>
