<svg width="10" height="20" viewBox="0 0 10 20" fill="none"
                                    xmlns="http://www.w3.org/2000/svg">
                                    <path
                                        d="M9.99842 2.94801C9.99842 2.18489 9.99842 1.42177 9.99842 0.658649C9.99842 0.536411 9.99842 0.412426 9.99842 0.290187C9.99842 0.269232 10.0037 0.24653 9.97902 0.225575C9.93141 0.216844 9.87674 0.206366 9.82384 0.199381C9.57521 0.164456 9.32481 0.133023 9.07442 0.105082C8.79228 0.0736496 8.50838 0.0474556 8.22448 0.0299929C7.98466 0.0142765 7.74308 0.00379888 7.5015 0.00205262C7.12062 0.000306347 6.74326 0.0212616 6.36766 0.0876198C5.98854 0.153978 5.62176 0.2605 5.27085 0.417664C4.66602 0.690082 4.16699 1.08998 3.78082 1.62608C3.48986 2.03122 3.2906 2.47826 3.16011 2.95674C3.08253 3.24313 3.02963 3.53475 3.00141 3.82987C2.98025 4.05339 2.96615 4.27692 2.96615 4.50044C2.96615 5.14132 2.96615 5.78045 2.96615 6.42133C2.96615 6.60644 2.96615 6.7898 2.96615 6.9749C2.96615 6.99935 2.9732 7.02554 2.94675 7.05174C2.91324 7.05174 2.87269 7.05348 2.83389 7.05348C2.30841 7.05348 1.78117 7.05348 1.25569 7.05348C0.876566 7.05348 0.495681 7.05348 0.116559 7.05348C0.081292 7.05348 0.0442615 7.04475 0.00370431 7.06745C0.00370431 7.10936 0.00194095 7.15127 0.00194095 7.19493C0.00194095 8.20078 0.00194095 9.20663 0.00194095 10.2107C0.00194095 10.2509 0.00194095 10.2911 0.00194095 10.3295C0.00194095 10.3504 -0.00334912 10.3731 0.0213379 10.3941C0.051315 10.3941 0.0883455 10.3976 0.123613 10.3976C0.470994 10.3976 0.818376 10.3976 1.16399 10.3976C1.72298 10.3976 2.28196 10.3976 2.84095 10.3976C2.87974 10.3976 2.9203 10.3889 2.96438 10.4098C2.96438 10.4535 2.96615 10.4954 2.96615 10.539C2.96615 13.12 2.96615 17.3704 2.96615 20.0003H6.62159C6.62159 17.3722 6.62159 13.12 6.62159 10.539C6.62159 10.5146 6.62159 10.4884 6.62159 10.4639C6.62159 10.443 6.61806 10.4203 6.64627 10.3993C6.67801 10.3993 6.71857 10.3993 6.75913 10.3993C7.237 10.3993 7.71663 10.3993 8.1945 10.3993C8.54541 10.3993 8.89632 10.3993 9.24723 10.3993C9.27897 10.3993 9.31247 10.4081 9.34774 10.3819C9.50997 9.33411 9.67396 8.28111 9.83795 7.22811C9.84677 7.17572 9.85206 7.12159 9.85911 7.06571C9.81679 7.04999 9.77623 7.05523 9.73744 7.05523C8.81344 7.05523 7.88944 7.05523 6.96544 7.05523C6.87375 7.05523 6.78205 7.05523 6.69212 7.05523C6.67096 7.05523 6.64804 7.06047 6.6304 7.04126C6.61806 7.01856 6.62335 6.99236 6.62335 6.96792C6.62335 6.25544 6.62335 5.54296 6.62335 4.83048C6.62335 4.62268 6.65333 4.42011 6.71504 4.22104C6.86669 3.72859 7.1841 3.38807 7.67607 3.21169C7.88415 3.1366 8.09928 3.09993 8.31794 3.08596C8.42374 3.07898 8.52954 3.08072 8.63534 3.08072C9.05149 3.08072 9.46765 3.08072 9.8838 3.08072C9.91907 3.08072 9.9561 3.0912 9.99136 3.0685C10.0055 3.02834 9.99842 2.98817 9.99842 2.94801Z"
                                        fill="#186BF2" />
                                </svg>