<svg width="22" height="14" viewBox="0 0 22 14" fill="none" xmlns="http://www.w3.org/2000/svg">
    <path d="M19.3194 13.9971C18.7952 13.9971 18.2702 13.9981 17.746 13.9971C17.5756 13.9971 17.4156 13.9445 17.2609 13.8677C17.187 13.8307 17.1087 13.8074 17.0357 13.7685C16.8897 13.6906 16.7515 13.5982 16.6193 13.4922C16.4072 13.3209 16.2116 13.1303 16.0308 12.9201C15.8882 12.7547 15.75 12.5845 15.6135 12.4123C15.4692 12.2313 15.331 12.0436 15.1867 11.8626C15.0632 11.7079 14.9372 11.5561 14.8068 11.4092C14.6947 11.2828 14.5799 11.1592 14.4582 11.0444C14.3678 10.9598 14.2696 10.879 14.1635 10.8226C14.0583 10.7652 13.9401 10.737 13.8262 10.7029C13.7949 10.6932 13.7575 10.7068 13.7236 10.7156C13.5828 10.7545 13.4637 10.8343 13.3585 10.9462C13.2559 11.0541 13.1855 11.1835 13.1229 11.3246C13.023 11.5503 12.9578 11.7867 12.9117 12.029C12.8752 12.2216 12.8587 12.4191 12.843 12.6156C12.83 12.78 12.83 12.9454 12.8239 13.1098C12.8204 13.2236 12.8109 13.3336 12.7683 13.4406C12.7404 13.5106 12.7291 13.5885 12.6848 13.6517C12.6222 13.7393 12.5535 13.8142 12.4562 13.8512C12.3936 13.8745 12.3336 13.9095 12.2736 13.9407C12.1928 13.9825 12.1067 13.9951 12.0198 13.9951C11.5503 13.9971 11.0809 14 10.6115 13.9932C10.4324 13.9903 10.2533 13.9854 10.076 13.9445C9.91516 13.9076 9.7526 13.8764 9.59091 13.8443C9.55353 13.8366 9.51615 13.8346 9.47876 13.8278C9.42139 13.8171 9.36315 13.8103 9.30838 13.7938C9.1832 13.7548 9.05889 13.7111 8.93457 13.6692C8.81287 13.6293 8.68943 13.5963 8.56946 13.5486C8.4069 13.4844 8.24521 13.4134 8.08699 13.3365C7.89922 13.2451 7.71318 13.1468 7.52889 13.0456C7.40719 12.9785 7.28896 12.9036 7.17247 12.8248C6.97948 12.6944 6.78389 12.5679 6.60133 12.421C6.35966 12.2265 6.11799 12.0309 5.89979 11.8023C5.75027 11.6447 5.59119 11.4978 5.44949 11.3324C5.20956 11.0522 4.96441 10.7759 4.75403 10.4656C4.66189 10.3294 4.55322 10.2058 4.46108 10.0696C4.28547 9.81276 4.11683 9.55009 3.9447 9.29033C3.85516 9.1551 3.76302 9.02182 3.67782 8.88367C3.56829 8.70466 3.46223 8.52273 3.35791 8.34081C3.21969 8.10148 3.08408 7.86118 2.9476 7.62088C2.87457 7.49246 2.80068 7.36502 2.73027 7.23465C2.67029 7.12375 2.6216 7.00603 2.5564 6.89901C2.43296 6.69471 2.33734 6.47387 2.22867 6.25984C2.12609 6.05748 2.02786 5.85123 1.92702 5.6479C1.80619 5.40468 1.68274 5.16341 1.56452 4.91922C1.50366 4.79469 1.45324 4.66433 1.395 4.53785C1.35588 4.45127 1.31068 4.36857 1.27156 4.28199C1.22635 4.18178 1.18636 4.07866 1.14203 3.97845C1.10639 3.8977 1.06727 3.8189 1.02989 3.73913C0.995114 3.66519 0.958603 3.59125 0.926438 3.51537C0.853416 3.34706 0.781262 3.17778 0.709979 3.0085C0.68303 2.94429 0.65782 2.87911 0.63174 2.81393C0.542201 2.59308 0.4544 2.37224 0.363991 2.1514C0.27619 1.9364 0.177957 1.72626 0.099719 1.50736C0.0466908 1.35851 -0.00633756 1.20577 0.000616966 1.03844C0.00496354 0.918773 0.0553838 0.832187 0.139707 0.762141C0.27619 0.648315 0.436144 0.618156 0.596098 0.606481C0.80995 0.591888 1.02467 0.599671 1.23939 0.599671C2.07393 0.599671 2.90848 0.597725 3.74302 0.602589C3.97774 0.603562 4.19159 0.690148 4.36893 0.869156C4.40979 0.910017 4.4463 0.958661 4.47411 1.01022C4.52019 1.09584 4.55844 1.18631 4.59669 1.27582C4.63407 1.36337 4.66884 1.45191 4.70361 1.54044C4.73752 1.62605 4.77229 1.71166 4.80098 1.80019C4.88617 2.0619 4.99831 2.30998 5.11132 2.55806C5.1687 2.68453 5.21564 2.81684 5.27041 2.94526C5.31909 3.05909 5.36951 3.17097 5.42167 3.28285C5.53207 3.52023 5.64161 3.75956 5.75723 3.99402C5.83112 4.14384 5.91718 4.28685 5.99716 4.43376C6.098 4.61958 6.19449 4.80734 6.29794 4.99024C6.42312 5.21205 6.54917 5.4329 6.68478 5.64693C6.84995 5.90863 7.02382 6.16255 7.21681 6.4009C7.35155 6.56629 7.49759 6.71417 7.66624 6.82313C7.89139 6.96809 8.12176 7.00019 8.33735 6.72292C8.3843 6.6626 8.42168 6.58964 8.44863 6.5157C8.49296 6.39409 8.53469 6.27054 8.56251 6.14017C8.6138 5.90279 8.62771 5.66055 8.66422 5.42122C8.6816 5.31031 8.6903 5.19649 8.69377 5.08363C8.70247 4.79177 8.71029 4.50089 8.71029 4.20902C8.71029 3.88214 8.70768 3.55428 8.6929 3.2274C8.68247 2.98904 8.67639 2.74972 8.63901 2.51234C8.61293 2.34695 8.59641 2.17961 8.55903 2.01617C8.50513 1.78366 8.41646 1.5706 8.2765 1.38867C8.19044 1.27776 8.0809 1.19507 7.96355 1.13183C7.85227 1.07151 7.73579 1.02287 7.6193 0.973254C7.58192 0.957688 7.54106 0.953796 7.50107 0.946014C7.48369 0.943095 7.4663 0.94504 7.44891 0.943094C7.34807 0.930447 7.33069 0.893478 7.37067 0.788408C7.41588 0.670691 7.50368 0.591888 7.58539 0.512113C7.72188 0.380775 7.87922 0.289325 8.05483 0.22998C8.16523 0.193011 8.27476 0.157015 8.3869 0.128801C8.51643 0.0957237 8.64509 0.063619 8.77897 0.0568089C8.95196 0.0480531 9.12408 0.0227585 9.29621 0.00524686C9.3249 0.00232824 9.35445 0.00135513 9.38314 0.00135513C9.91342 0.000382262 10.4437 -0.00156342 10.974 0.00232806C11.0948 0.00330093 11.2157 0.0237313 11.3365 0.0373515C11.4599 0.0509717 11.5834 0.0645918 11.7068 0.0801578C11.7494 0.085995 11.792 0.0966967 11.8346 0.106425C11.9111 0.122964 11.9876 0.140476 12.0632 0.157987C12.0832 0.162852 12.1041 0.161879 12.1224 0.170635C12.2397 0.225116 12.3571 0.278624 12.4727 0.338942C12.5109 0.359372 12.5474 0.39245 12.5744 0.428446C12.63 0.503357 12.6918 0.577295 12.7265 0.663881C12.7726 0.780625 12.8065 0.908072 12.8256 1.03357C12.8787 1.38964 12.876 1.75058 12.8595 2.10957C12.8361 2.63103 12.8282 3.15151 12.8256 3.67297C12.8239 4.00958 12.8152 4.34717 12.8091 4.68378C12.8048 4.92992 12.79 5.17606 12.7952 5.42122C12.8004 5.63428 12.8187 5.84734 12.8482 6.05748C12.8665 6.19271 12.9108 6.32405 12.9639 6.45149C13.0177 6.58186 13.0942 6.68498 13.1847 6.78324C13.269 6.87469 13.369 6.90096 13.4802 6.88831C13.6019 6.87372 13.7062 6.8134 13.8019 6.73071C14.1113 6.46317 14.3687 6.1392 14.6008 5.78994C14.6251 5.75394 14.6477 5.71503 14.6729 5.68098C14.7998 5.5117 14.8955 5.31907 15.005 5.13617C15.1163 4.95035 15.2284 4.76551 15.3362 4.57774C15.3988 4.46878 15.4536 4.35398 15.5127 4.24307C15.5935 4.09033 15.6787 3.93954 15.7552 3.78388C15.8422 3.60876 15.9247 3.42975 16.0047 3.25075C16.1064 3.02212 16.2064 2.79252 16.3038 2.56098C16.3664 2.41213 16.422 2.25939 16.4811 2.10859C16.522 2.00547 16.5646 1.90235 16.6045 1.79922C16.6341 1.72236 16.661 1.64454 16.6889 1.56671C16.7262 1.46164 16.761 1.35559 16.8019 1.25247C16.8506 1.12891 16.8801 0.993684 16.9601 0.887641C17.0105 0.821486 17.0548 0.739765 17.1192 0.698904C17.1992 0.647342 17.2896 0.60259 17.3887 0.603563C17.5599 0.604536 17.7303 0.601617 17.9016 0.601617C18.8987 0.601617 19.8949 0.601617 20.892 0.601617C21.0076 0.601617 21.1224 0.601617 21.238 0.604535C21.278 0.605508 21.318 0.614264 21.358 0.621074C21.4379 0.635667 21.5179 0.647342 21.5962 0.669718C21.7153 0.704741 21.8274 0.768951 21.9074 0.872075C21.9578 0.936284 21.9969 1.02092 21.996 1.11918C21.9943 1.25539 21.99 1.3877 21.95 1.52098C21.9195 1.62119 21.9074 1.7282 21.8656 1.82549C21.7944 1.99185 21.7248 2.15821 21.6587 2.32749C21.5649 2.56876 21.4353 2.78766 21.3145 3.01239C21.2015 3.22253 21.0746 3.42294 20.9529 3.62725C20.8642 3.77512 20.7773 3.92397 20.6851 4.06893C20.5504 4.27907 20.4121 4.48726 20.2739 4.69449C20.1096 4.94062 19.9436 5.18676 19.7775 5.43095C19.6811 5.57202 19.582 5.71114 19.4855 5.8522C19.342 6.06332 19.2003 6.27637 19.0586 6.48846C18.9621 6.63342 18.8648 6.77838 18.7691 6.92528C18.6361 7.13056 18.5188 7.34751 18.444 7.58683C18.378 7.79405 18.3588 8.0149 18.4301 8.22504C18.4788 8.36805 18.5379 8.51203 18.6301 8.62975C18.7639 8.8 18.8961 8.97123 19.0412 9.12981C19.2316 9.338 19.4333 9.53257 19.6298 9.73299C19.6358 9.7398 19.6428 9.74563 19.6489 9.75244C19.8706 9.99858 20.0931 10.2447 20.3148 10.4918C20.4208 10.6105 20.526 10.7302 20.6295 10.8518C20.7434 10.9851 20.8598 11.1174 20.9676 11.2565C21.0798 11.4005 21.1824 11.5532 21.2893 11.7021C21.4884 11.9764 21.6587 12.2732 21.8204 12.5767C21.8917 12.7109 21.9508 12.854 21.9795 13.0048C22.0386 13.3083 21.976 13.5768 21.7092 13.7558C21.5866 13.8385 21.4501 13.8784 21.3154 13.928C21.1354 13.9942 20.952 14 20.7668 14C20.2817 13.9961 19.801 13.9971 19.3194 13.9971Z" fill="#19B4BE"/>
</svg>