<svg width="18" height="18" viewBox="0 0 18 18" fill="none" xmlns="http://www.w3.org/2000/svg">
<path d="M17.806 8.50367C17.806 8.52245 17.806 8.53811 17.806 8.55689C17.806 8.57568 17.806 8.59133 17.806 8.61012C17.806 8.62891 17.806 8.64456 17.806 8.66335C17.806 8.68213 17.806 8.70092 17.806 8.71657C17.806 9.89382 17.5649 11.0178 17.1297 12.0385C16.6945 13.0592 16.0652 13.9797 15.2887 14.75C14.5122 15.5233 13.5854 16.1464 12.5553 16.5785C11.5284 17.0105 10.395 17.2485 9.20833 17.2485C8.83261 17.2485 8.46003 17.2234 8.09683 17.1765C7.73364 17.1295 7.37671 17.0606 7.02917 16.9698C6.68163 16.879 6.34035 16.7663 6.0116 16.6348C5.68285 16.5033 5.36349 16.353 5.05352 16.184L3.86375 16.5628L2.67398 16.9417L1.48421 17.3205L0.294434 17.6994L0.688937 16.5565L1.07718 15.4106L1.46542 14.2647L1.85366 13.1187C1.65641 12.7962 1.48421 12.4612 1.33079 12.1137C1.17737 11.7661 1.049 11.4061 0.942546 11.0366C0.836093 10.6672 0.757818 10.2883 0.701461 9.90008C0.648234 9.51184 0.620055 9.11421 0.620055 8.71344C0.620055 8.68213 0.620055 8.65082 0.620055 8.61951C0.620055 8.5882 0.620055 8.55689 0.623186 8.52558C0.623186 8.49427 0.626317 8.46296 0.626317 8.43165C0.626317 8.40034 0.629448 8.36903 0.629448 8.33772C0.679544 7.20431 0.951939 6.12725 1.40593 5.15039C1.85992 4.17352 2.49238 3.29685 3.26573 2.56107C4.03908 1.82529 4.94707 1.2304 5.95524 0.820245C6.96342 0.410086 8.05926 0.190918 9.21459 0.190918C10.3824 0.190918 11.4971 0.42261 12.5146 0.842162C13.5291 1.26171 14.4465 1.86912 15.2229 2.62056C15.9963 3.37199 16.6288 4.26745 17.0765 5.2631C17.518 6.25562 17.7778 7.35147 17.806 8.50367ZM9.21459 15.8928C10.2102 15.8928 11.1621 15.6924 12.0262 15.3292C12.8904 14.966 13.67 14.44 14.3244 13.7919C14.9787 13.1438 15.5079 12.3704 15.8742 11.5125C16.2405 10.6546 16.444 9.71222 16.444 8.72283C16.444 8.67587 16.444 8.62891 16.4409 8.58194C16.4409 8.53498 16.4378 8.48801 16.4346 8.44105C16.4315 8.39408 16.4284 8.34712 16.4284 8.30015C16.4252 8.25319 16.4221 8.20622 16.419 8.16239C16.347 7.23875 16.0965 6.36521 15.7051 5.56994C15.3137 4.7778 14.7783 4.06707 14.1334 3.46905C13.4884 2.87417 12.7338 2.392 11.9041 2.06324C11.0744 1.73449 10.1664 1.54976 9.21772 1.54976C8.28156 1.54976 7.38297 1.72823 6.56265 2.05072C5.73921 2.37321 4.9909 2.84286 4.34905 3.42522C3.7072 4.00758 3.16867 4.70579 2.77104 5.48227C2.3734 6.25875 2.11353 7.11977 2.02586 8.02463C2.0196 8.08098 2.01647 8.14047 2.01021 8.19683C2.00708 8.25319 2.00082 8.31268 2.00082 8.36903C1.99769 8.42539 1.99456 8.48488 1.99456 8.54437C1.99456 8.60386 1.99142 8.66022 1.99142 8.7197C1.99142 9.11108 2.02273 9.49619 2.08535 9.8719C2.14797 10.2476 2.23877 10.6139 2.35462 10.9677C2.47359 11.3215 2.61762 11.6628 2.78669 11.9916C2.95577 12.3172 3.14989 12.6303 3.36592 12.9277L3.14049 13.5946L2.91193 14.2553L2.6865 14.9222L2.46107 15.5891L3.15615 15.3668L3.85123 15.1445L4.5463 14.9222L5.24138 14.6999C5.5263 14.8877 5.82687 15.0568 6.13684 15.2008C6.44994 15.348 6.77243 15.4732 7.10744 15.5734C7.44246 15.6736 7.78374 15.7519 8.13754 15.8051C8.48821 15.8646 8.84827 15.8928 9.21459 15.8928Z" fill="#1BD741"/>
<path d="M0 18L1.64376 13.147C1.46217 12.8401 1.29623 12.5208 1.15533 12.1983C0.998782 11.8414 0.867281 11.4719 0.760828 11.0993C0.651244 10.7205 0.569838 10.3291 0.516612 9.93773C0.460254 9.53696 0.432075 9.12994 0.432075 8.72291C0.432075 8.6916 0.432075 8.65716 0.432075 8.62585C0.432075 8.59454 0.432075 8.5601 0.435206 8.52879C0.435206 8.49748 0.438337 8.46617 0.438337 8.43173C0.438337 8.40042 0.441468 8.36911 0.441468 8.3378C0.491564 7.20438 0.757697 6.10541 1.23361 5.07845C1.69073 4.07967 2.33258 3.19047 3.13098 2.42651C3.93251 1.66255 4.85615 1.06453 5.87998 0.648113C6.93825 0.219169 8.05914 0 9.21447 0C10.3823 0 11.5157 0.2223 12.5865 0.663768C13.6198 1.08958 14.5497 1.70012 15.3543 2.47974C16.1559 3.25935 16.7946 4.16733 17.2486 5.18177C17.7182 6.23065 17.9718 7.34528 18 8.49748L18.0031 8.60706C18.0031 8.62585 18.0031 8.64463 18.0031 8.66342C18.0031 8.68221 18.0031 8.70099 18.0031 8.71978C18.0031 9.89703 17.7714 11.0398 17.3112 12.1169C16.8697 13.1564 16.2341 14.0894 15.4295 14.8878C14.6217 15.6893 13.6824 16.3187 12.6366 16.757C11.5533 17.211 10.4011 17.4427 9.2176 17.4427C8.83875 17.4427 8.45677 17.4176 8.08106 17.3707C7.71473 17.3237 7.34528 17.2517 6.98835 17.1578C6.63768 17.067 6.28701 16.9511 5.94886 16.8165C5.64202 16.6944 5.33519 16.5504 5.04088 16.3938L0 18ZM9.21447 0.381979C8.10924 0.381979 7.03531 0.591755 6.024 1.00504C5.04714 1.40268 4.16107 1.97565 3.39398 2.70517C2.63002 3.43468 2.01635 4.28631 1.57488 5.23813C1.12089 6.22126 0.86415 7.267 0.817186 8.35345C0.817186 8.38476 0.814055 8.41607 0.814055 8.44738C0.814055 8.47869 0.810924 8.51 0.810924 8.53818C0.810924 8.56949 0.810924 8.6008 0.807793 8.62898C0.807793 8.66029 0.807793 8.68847 0.807793 8.71978C0.807793 9.10802 0.835971 9.49939 0.889198 9.88137C0.942425 10.2571 1.0207 10.6297 1.12402 10.9929C1.22421 11.3498 1.35258 11.7036 1.50287 12.0449C1.65003 12.3799 1.82223 12.7118 2.01322 13.0249L2.06018 13.1L0.601148 17.4082L5.07845 15.9836L5.15046 16.0244C5.45103 16.1903 5.76726 16.3375 6.08662 16.4658C6.40911 16.5942 6.74413 16.7038 7.08227 16.7914C7.42355 16.8791 7.77735 16.948 8.12802 16.995C8.48495 17.0419 8.85128 17.0638 9.21447 17.0638C10.351 17.0638 11.45 16.8447 12.4863 16.4095C13.4883 15.9899 14.3868 15.3888 15.1571 14.6217C15.9304 13.8546 16.5347 12.9623 16.9574 11.9697C17.3957 10.9428 17.618 9.85006 17.618 8.72291C17.618 8.70725 17.618 8.68847 17.618 8.67281C17.618 8.65403 17.618 8.63837 17.618 8.61959L17.6149 8.51313C17.5867 7.41103 17.3456 6.34336 16.8979 5.34145C16.4627 4.37085 15.8553 3.50357 15.0882 2.75839C14.318 2.01322 13.4288 1.42773 12.4425 1.0207C11.4187 0.594886 10.3322 0.381979 9.21447 0.381979ZM9.21447 16.0807C8.84502 16.0807 8.47243 16.0525 8.1061 15.9993C7.74917 15.9461 7.39224 15.8647 7.04783 15.7613C6.70969 15.658 6.37467 15.5297 6.05218 15.3794C5.761 15.2416 5.47921 15.0882 5.20995 14.9129L2.15724 15.8835L3.14977 12.956C2.94938 12.6773 2.77092 12.3799 2.61124 12.0762C2.4359 11.738 2.28561 11.3842 2.16664 11.0273C2.04453 10.661 1.9506 10.2821 1.88798 9.90329C1.82536 9.51505 1.79092 9.11741 1.79092 8.71978C1.79092 8.66029 1.79092 8.6008 1.79405 8.53818C1.79405 8.47869 1.79718 8.4192 1.80031 8.35971C1.80344 8.30023 1.80657 8.24074 1.81284 8.18125C1.81597 8.12176 1.82223 8.06227 1.82849 8.00591C1.91616 7.09167 2.17603 6.21186 2.59245 5.39468C2.99948 4.59941 3.54427 3.88868 4.21117 3.2844C4.8812 2.67699 5.64516 2.20108 6.48426 1.87233C7.35154 1.53105 8.26892 1.35884 9.21134 1.35884C10.1632 1.35884 11.0899 1.53731 11.9697 1.88485C12.8182 2.223 13.5884 2.7083 14.2585 3.32823C14.9285 3.94503 15.4702 4.67142 15.8741 5.48234C16.2874 6.31832 16.5347 7.21378 16.6067 8.14368C16.6098 8.19064 16.613 8.23761 16.6161 8.28457C16.6192 8.33154 16.6224 8.3785 16.6255 8.4286C16.6286 8.47556 16.6286 8.52566 16.6318 8.57262C16.6318 8.61959 16.6349 8.66968 16.6349 8.71665C16.6349 9.70917 16.4376 10.6735 16.0494 11.5815C15.6737 12.4582 15.1383 13.244 14.4589 13.9235C13.7763 14.5998 12.9842 15.132 12.1012 15.5015C11.1839 15.8866 10.2133 16.0807 9.21447 16.0807ZM5.26631 14.4964L5.34145 14.5465C5.62011 14.7281 5.91442 14.8941 6.21499 15.035C6.5187 15.179 6.83806 15.3011 7.15742 15.3982C7.48304 15.4983 7.82119 15.5735 8.15933 15.6236C8.50374 15.6768 8.85754 15.7019 9.21134 15.7019C10.16 15.7019 11.0805 15.5171 11.9478 15.1508C12.7869 14.797 13.5384 14.2929 14.1865 13.6511C14.8346 13.0092 15.3418 12.2609 15.6956 11.4312C16.0619 10.5702 16.2498 9.65594 16.2498 8.71665C16.2498 8.67281 16.2498 8.62585 16.2467 8.58201C16.2467 8.53505 16.2435 8.49122 16.2404 8.44425C16.2373 8.39729 16.2373 8.35345 16.2341 8.30649C16.231 8.25952 16.2279 8.21569 16.2247 8.16872C16.1559 7.28892 15.921 6.44042 15.5297 5.64829C15.1477 4.87807 14.6342 4.18925 13.9986 3.60376C13.3599 3.01513 12.6304 2.55488 11.8257 2.23239C10.9929 1.9005 10.1131 1.73143 9.21134 1.73143C8.31901 1.73143 7.4486 1.89424 6.62515 2.21986C5.82988 2.53296 5.1035 2.98382 4.47104 3.55992C3.83858 4.13289 3.32197 4.80605 2.93686 5.56062C2.53922 6.3371 2.29501 7.16994 2.21047 8.03722C2.20421 8.09358 2.20108 8.14994 2.19482 8.2063C2.19169 8.26265 2.18855 8.31901 2.18542 8.37537C2.18229 8.43173 2.17916 8.48808 2.17916 8.54444C2.17916 8.6008 2.17603 8.65716 2.17603 8.71351C2.17603 9.08923 2.20734 9.46808 2.26683 9.83441C2.32632 10.1945 2.41399 10.5545 2.52983 10.8989C2.64255 11.2402 2.78657 11.5752 2.94938 11.8946C3.11219 12.2108 3.30318 12.5177 3.51296 12.8057L3.57245 12.8871L2.75839 15.2886L5.26631 14.4964Z" fill="#1BD741"/>
<path d="M12.9061 10.4417C12.9593 10.4667 13.0063 10.4918 13.0501 10.5106C13.094 10.5325 13.1315 10.5513 13.166 10.5701C13.2004 10.5888 13.2286 10.6076 13.2537 10.6264C13.2787 10.6452 13.2975 10.664 13.31 10.6859C13.3225 10.7078 13.3319 10.7516 13.3382 10.8111C13.3413 10.8706 13.3413 10.9458 13.3351 11.0334C13.3288 11.1211 13.3131 11.2213 13.2881 11.3309C13.263 11.4405 13.2317 11.5594 13.1879 11.6816C13.1441 11.8037 13.0564 11.9258 12.9468 12.0385C12.8341 12.1512 12.6995 12.2577 12.5554 12.3484C12.4114 12.4392 12.2643 12.5175 12.1265 12.5739C11.9887 12.6302 11.8635 12.6678 11.7664 12.6741C11.6694 12.6835 11.5974 12.7085 11.5097 12.7242C11.422 12.743 11.3187 12.7555 11.1622 12.7398C11.0056 12.7242 10.7927 12.6835 10.4827 12.5895C10.1759 12.4987 9.77201 12.3578 9.23661 12.1481C8.70121 11.9383 8.21591 11.644 7.78383 11.3215C7.35489 10.9959 6.9823 10.6421 6.67234 10.3071C6.36237 9.97204 6.11815 9.66207 5.94282 9.42412C5.76748 9.18616 5.66416 9.02648 5.63598 8.98891C5.6172 8.96073 5.57336 8.90437 5.51387 8.81984C5.45752 8.7353 5.3855 8.62885 5.31036 8.50048C5.23522 8.37211 5.15381 8.22495 5.0818 8.06214C5.00666 7.89933 4.93777 7.72399 4.88455 7.53927C4.86889 7.48291 4.85324 7.42342 4.84071 7.36706C4.82819 7.30757 4.81567 7.24808 4.80627 7.1886C4.79688 7.12911 4.79062 7.06962 4.78436 7.01013C4.77809 6.95064 4.77496 6.88802 4.77496 6.82853C4.77496 6.57179 4.8094 6.34636 4.86263 6.15224C4.91586 5.95812 4.991 5.79218 5.07241 5.65129C5.15381 5.51039 5.23835 5.39454 5.31662 5.30375C5.3949 5.21295 5.46378 5.14094 5.51387 5.08771C5.56084 5.03448 5.61407 4.99378 5.66416 4.95934C5.71426 4.9249 5.76435 4.89985 5.81445 4.87793C5.86454 4.85915 5.91151 4.84662 5.95534 4.83723C5.99918 4.82784 6.03988 4.82471 6.07745 4.82471C6.11189 4.82471 6.14633 4.82471 6.18077 4.82784C6.21521 4.83097 6.24965 4.83097 6.2841 4.8341C6.31854 4.83723 6.35298 4.83723 6.38429 4.84036C6.4156 4.84349 6.45004 4.84349 6.48135 4.84349C6.51266 4.84349 6.54397 4.84036 6.58154 4.84036C6.61911 4.84036 6.65668 4.84349 6.69738 4.86228C6.73809 4.88106 6.77879 4.90924 6.82262 4.96247C6.86646 5.0157 6.91029 5.08771 6.95413 5.19416C6.99796 5.29748 7.05745 5.44151 7.1232 5.59806C7.18895 5.75461 7.26096 5.92681 7.32671 6.08649C7.39246 6.2493 7.45821 6.39959 7.50831 6.51544C7.5584 6.63441 7.59598 6.71582 7.6085 6.744C7.62102 6.76904 7.63355 6.79722 7.64294 6.8254C7.65233 6.85358 7.6586 6.88489 7.66173 6.91307C7.66486 6.94438 7.66486 6.97569 7.6586 7.007C7.65233 7.03831 7.64294 7.07275 7.62415 7.10719C7.61163 7.13224 7.60224 7.15416 7.58971 7.17607C7.58032 7.19799 7.5678 7.21991 7.5584 7.23869C7.54901 7.25748 7.53649 7.27939 7.52709 7.29818C7.51457 7.31697 7.50518 7.33575 7.49265 7.35454C7.48639 7.36393 7.48013 7.37019 7.477 7.37959C7.47074 7.38898 7.46447 7.39524 7.45821 7.40463C7.45195 7.41403 7.44569 7.42029 7.43943 7.42968C7.43317 7.43907 7.42377 7.44847 7.41751 7.45473C7.39246 7.48604 7.36428 7.51735 7.33924 7.54866C7.31106 7.57997 7.28601 7.61441 7.25783 7.64572C7.22965 7.67703 7.2046 7.70834 7.17956 7.73965C7.15451 7.76783 7.12946 7.79601 7.10441 7.81792C7.07936 7.84297 7.05119 7.87115 7.02927 7.89933C7.00735 7.92751 6.98543 7.95882 6.97291 7.99326C6.96039 8.0277 6.95413 8.06527 6.96039 8.10597C6.96665 8.14668 6.9823 8.19364 7.01361 8.24687C7.04492 8.30009 7.09502 8.3815 7.16077 8.48482C7.22652 8.58814 7.31106 8.71025 7.41125 8.84175C7.51144 8.97639 7.62729 9.12041 7.75566 9.26443C7.88403 9.40846 8.02805 9.55562 8.18773 9.69651C8.38811 9.87498 8.58223 10.0221 8.76383 10.1442C8.94543 10.2663 9.11137 10.3634 9.25853 10.4448C9.40568 10.5231 9.53718 10.5826 9.64364 10.6295C9.75009 10.6765 9.8315 10.7078 9.88472 10.736C9.93795 10.761 9.98491 10.7798 10.0287 10.7924C10.0726 10.8049 10.1102 10.808 10.1477 10.8017C10.1853 10.7986 10.2166 10.7861 10.251 10.7642C10.2824 10.7454 10.3137 10.7172 10.345 10.6828C10.3763 10.6483 10.4232 10.592 10.4827 10.5262C10.5391 10.4605 10.608 10.3822 10.6737 10.3008C10.7395 10.2194 10.8084 10.138 10.8678 10.0628C10.9273 9.98769 10.9806 9.91881 11.015 9.86558C11.0494 9.81236 11.087 9.77478 11.1215 9.74974C11.1559 9.72469 11.1935 9.71217 11.231 9.7059C11.2686 9.70277 11.3093 9.7059 11.3532 9.7153C11.397 9.72469 11.4408 9.74034 11.4878 9.75913C11.5347 9.77479 11.6349 9.82175 11.7633 9.87811C11.8917 9.9376 12.0451 10.0096 12.1985 10.0848C12.3519 10.1599 12.5085 10.235 12.64 10.2977C12.7464 10.3634 12.8529 10.4135 12.9061 10.4417Z" fill="#1BD741"/>
<path d="M11.2934 12.9372C11.2465 12.9372 11.1964 12.9341 11.14 12.931C10.9522 12.9122 10.7173 12.8621 10.4262 12.7744C10.0912 12.6742 9.67786 12.5302 9.16751 12.3298C8.66029 12.1326 8.15621 11.8445 7.67091 11.4782C7.27953 11.1839 6.89755 10.8363 6.53436 10.4418C6.27449 10.1601 6.02401 9.85948 5.78919 9.54325C5.66708 9.37731 5.57941 9.24894 5.52618 9.17066C5.5074 9.14248 5.49174 9.12057 5.48548 9.11117L5.47922 9.10491C5.4573 9.0736 5.41347 9.01724 5.35711 8.93584C5.28197 8.82939 5.20995 8.71667 5.1442 8.60396C5.05654 8.45367 4.97513 8.30025 4.90625 8.14683C4.82171 7.96211 4.75283 7.77425 4.6996 7.59578C4.68082 7.53316 4.66516 7.47054 4.65264 7.41105C4.63699 7.34843 4.62446 7.28268 4.61507 7.22319C4.60567 7.15744 4.59628 7.09169 4.59002 7.02907C4.58376 6.96332 4.58063 6.89444 4.58063 6.83182C4.58063 6.57821 4.61194 6.33087 4.67456 6.10543C4.72778 5.91445 4.80293 5.72972 4.89999 5.56064C4.97513 5.42914 5.05967 5.30704 5.16299 5.18493C5.22561 5.11291 5.28197 5.05343 5.3258 5.00646C5.34146 4.99081 5.35398 4.97515 5.3665 4.96263C5.42286 4.90314 5.48235 4.84991 5.5481 4.80608C5.60759 4.76538 5.67021 4.73094 5.73596 4.70589C5.79232 4.68397 5.85181 4.66518 5.91442 4.65579C5.96765 4.6464 6.02088 4.64014 6.07097 4.64014C6.10541 4.64014 6.14299 4.64014 6.18369 4.64327C6.21813 4.6464 6.2557 4.6464 6.29014 4.64953C6.32458 4.65266 6.35589 4.65266 6.3872 4.65579C6.42791 4.65892 6.46548 4.65892 6.50618 4.65579C6.5281 4.65579 6.55001 4.65266 6.57193 4.65266C6.64081 4.65266 6.70343 4.66518 6.76292 4.69023C6.83493 4.72154 6.90068 4.77477 6.96017 4.84365C7.01966 4.91566 7.06976 5.00646 7.11985 5.12231C7.16369 5.22563 7.22318 5.36965 7.28893 5.5262L7.33589 5.64205C7.38599 5.76416 7.43921 5.89253 7.49244 6.01464C7.55819 6.17432 7.62394 6.32773 7.67091 6.44358C7.74292 6.60952 7.75857 6.65023 7.76483 6.65962C7.78362 6.70032 7.79928 6.73476 7.8118 6.7692C7.82745 6.81304 7.83685 6.85687 7.83998 6.89757C7.84624 6.94767 7.84311 6.99776 7.83372 7.04473C7.82432 7.09796 7.80554 7.14805 7.78049 7.19815L7.74605 7.26703C7.73352 7.28894 7.72413 7.31086 7.71161 7.33278C7.69908 7.3547 7.68969 7.37661 7.67717 7.39853C7.66464 7.42045 7.65212 7.44236 7.63646 7.46428L7.63333 7.46741C7.62707 7.4768 7.62081 7.4862 7.61455 7.49559C7.60829 7.50498 7.59889 7.51438 7.59263 7.52377C7.58637 7.53316 7.57698 7.54255 7.56758 7.55508C7.55819 7.56447 7.55193 7.57386 7.54253 7.58639C7.51749 7.61457 7.49244 7.64588 7.46739 7.67719L7.45487 7.69284C7.43295 7.72102 7.4079 7.7492 7.38599 7.77738C7.35781 7.81182 7.32963 7.84313 7.30145 7.87444C7.27014 7.90888 7.24196 7.93706 7.21691 7.96211C7.195 7.98402 7.17308 8.00594 7.15742 8.02786C7.1449 8.04351 7.13551 8.05604 7.13238 8.06856C7.12925 8.07482 7.12925 8.08108 7.12925 8.09048C7.12925 8.09987 7.13551 8.12179 7.15742 8.15623C7.20126 8.23137 7.24822 8.30651 7.30145 8.38792C7.37659 8.5069 7.46113 8.62274 7.54567 8.73546C7.65212 8.87948 7.76483 9.01725 7.88068 9.14562C8.01531 9.29903 8.15621 9.4368 8.29397 9.5589C8.47244 9.71858 8.6603 9.86261 8.85129 9.99098C9.0047 10.0974 9.16751 10.1945 9.32719 10.279C9.48061 10.3604 9.61211 10.4199 9.69978 10.4575C9.74048 10.4763 9.77492 10.4888 9.80623 10.5045C9.86259 10.5295 9.90956 10.5483 9.94713 10.5671C9.99096 10.589 10.0254 10.6015 10.0536 10.6078C10.0724 10.614 10.088 10.614 10.1037 10.614C10.1099 10.614 10.1162 10.6109 10.1287 10.6047C10.1444 10.5953 10.16 10.5796 10.1788 10.5608C10.2101 10.5264 10.2571 10.4731 10.3135 10.4043C10.3698 10.3385 10.4356 10.2602 10.5013 10.182C10.5733 10.0943 10.6391 10.016 10.6923 9.94715C10.7549 9.86887 10.8019 9.80625 10.8301 9.76242C10.877 9.6904 10.9271 9.63718 10.9835 9.59961C11.043 9.5589 11.1119 9.53073 11.1807 9.52446C11.2371 9.5182 11.2997 9.52133 11.3655 9.53699C11.4187 9.54951 11.4719 9.5683 11.522 9.58708C11.5533 9.59961 11.6191 9.62466 11.8132 9.71232C11.929 9.76555 12.0762 9.83443 12.2515 9.91897C12.4081 9.99411 12.5615 10.0693 12.693 10.1319C12.8245 10.1945 12.9278 10.2477 12.981 10.2728C13.0186 10.2916 13.0562 10.3072 13.0875 10.326L13.1219 10.3416C13.1689 10.3636 13.2096 10.3855 13.2472 10.4043C13.2941 10.4293 13.3286 10.4512 13.3599 10.4763C13.4037 10.5107 13.435 10.5452 13.4601 10.5859L13.4632 10.589C13.4914 10.6391 13.5102 10.7048 13.5164 10.7956C13.5227 10.8677 13.5196 10.9553 13.5133 11.0493C13.5039 11.1526 13.4883 11.2622 13.4632 11.3717C13.435 11.497 13.4006 11.6222 13.3568 11.7443C13.3067 11.8852 13.2096 12.0292 13.0718 12.1701C12.956 12.2891 12.812 12.4018 12.6492 12.5083C12.502 12.6022 12.3423 12.6868 12.1889 12.7494C12.0793 12.7932 11.9165 12.8496 11.7725 12.8652C11.7224 12.8715 11.6754 12.8809 11.6253 12.8934C11.5972 12.8997 11.569 12.9059 11.5377 12.9122C11.4844 12.9247 11.403 12.9372 11.2934 12.9372ZM6.07411 5.01585C6.04593 5.01585 6.01775 5.01899 5.98644 5.02525C5.952 5.03151 5.91443 5.0409 5.87998 5.05656C5.83928 5.07221 5.80171 5.09413 5.76414 5.11605C5.72344 5.14422 5.68273 5.17867 5.64829 5.21624C5.63577 5.23189 5.62011 5.24442 5.60446 5.2632C5.56376 5.30704 5.51053 5.36339 5.4573 5.42601C5.36963 5.52933 5.29449 5.63579 5.23187 5.74537C5.15047 5.8894 5.08472 6.04282 5.04088 6.2025C4.98765 6.39662 4.95948 6.60639 4.95948 6.82869C4.95948 6.88192 4.96261 6.93828 4.96574 6.99463C4.96887 7.04786 4.97826 7.10422 4.98765 7.16057C4.99705 7.2138 5.00644 7.27016 5.01896 7.32652C5.03149 7.37974 5.04401 7.43297 5.05967 7.48933C5.10663 7.64901 5.16925 7.81808 5.24753 7.98715C5.31015 8.12805 5.38529 8.26894 5.4667 8.40984C5.52931 8.51629 5.59506 8.61961 5.66395 8.7198C5.71404 8.79495 5.75475 8.84817 5.77666 8.87635L5.77979 8.88261C5.78919 8.89201 5.80484 8.92019 5.82989 8.95776C5.87998 9.0329 5.96452 9.15814 6.0835 9.31782C6.30893 9.62152 6.55001 9.91271 6.80049 10.182C7.15116 10.5577 7.51436 10.8927 7.88694 11.1714C8.3472 11.5189 8.81997 11.7882 9.29275 11.9729C9.79371 12.1701 10.1976 12.311 10.5232 12.4081C10.7925 12.4864 11.0023 12.5333 11.1651 12.549C11.306 12.5615 11.3874 12.5521 11.4563 12.5365C11.4813 12.5302 11.5064 12.5239 11.5314 12.5208C11.5909 12.5083 11.6535 12.4895 11.7349 12.4832C11.8101 12.477 11.9196 12.4457 12.0418 12.3956C12.1733 12.3423 12.311 12.2703 12.4425 12.1858C12.5803 12.0981 12.7055 11.9979 12.7995 11.9009C12.8965 11.8007 12.9654 11.7005 12.9967 11.6128C13.0343 11.5064 13.0656 11.3968 13.0906 11.2872C13.1125 11.1933 13.1251 11.0993 13.1345 11.0117C13.1439 10.9177 13.1407 10.8551 13.1376 10.8207C13.1345 10.7988 13.1345 10.7862 13.1313 10.7769C13.1282 10.7769 13.1282 10.7737 13.1251 10.7706C13.1126 10.7612 13.0906 10.7487 13.0656 10.733C13.0374 10.7174 12.9998 10.6986 12.9591 10.6798L12.9247 10.6641C12.8903 10.6485 12.8527 10.6297 12.812 10.6109C12.7587 10.5859 12.6554 10.5326 12.5271 10.47C12.3987 10.4074 12.2421 10.3323 12.0887 10.2571C11.9134 10.1726 11.7694 10.1037 11.6535 10.0536C11.4782 9.97219 11.4156 9.94715 11.3936 9.94088C11.3529 9.92523 11.3122 9.9127 11.2778 9.90331C11.2527 9.89705 11.234 9.89705 11.2214 9.89705C11.2152 9.89705 11.2089 9.90018 11.1995 9.90644C11.187 9.91584 11.1682 9.93149 11.1432 9.97219C11.1087 10.0254 11.0555 10.0943 10.9866 10.1788C10.9303 10.2509 10.8645 10.3323 10.7894 10.4231C10.7205 10.5045 10.6547 10.5827 10.5984 10.6516C10.5389 10.7205 10.4919 10.7769 10.4606 10.8113C10.4168 10.8614 10.3729 10.899 10.3228 10.9303C10.2665 10.9647 10.207 10.9866 10.1444 10.9929C10.0849 10.9992 10.0223 10.996 9.95652 10.9772C9.90016 10.9647 9.84067 10.9397 9.77492 10.9084C9.74675 10.8958 9.70291 10.877 9.65282 10.8551C9.61837 10.8395 9.58393 10.8238 9.54323 10.8082C9.45243 10.7675 9.31154 10.7048 9.1456 10.6172C8.97026 10.5232 8.79806 10.4199 8.63212 10.3072C8.4286 10.1694 8.22822 10.0129 8.03723 9.84382C7.88694 9.71232 7.73666 9.56204 7.5895 9.39609C7.46739 9.26146 7.34841 9.11431 7.2357 8.96089C7.1449 8.84191 7.06036 8.71667 6.97896 8.59143C6.92573 8.5069 6.87251 8.42549 6.82867 8.34722C6.78797 8.2752 6.75979 8.20319 6.7504 8.13431C6.741 8.06543 6.7504 7.99655 6.77544 7.9308C6.79423 7.8807 6.82241 7.83373 6.86311 7.78677C6.89129 7.7492 6.92573 7.71789 6.95078 7.68971C6.9727 7.67092 6.99461 7.64588 7.01966 7.6177C7.04471 7.58952 7.06976 7.56134 7.09481 7.53003C7.11672 7.50498 7.13864 7.4768 7.16056 7.44862L7.17308 7.43297C7.20126 7.39853 7.22631 7.36722 7.25448 7.33591L7.25762 7.33278C7.26388 7.32652 7.27014 7.31712 7.2764 7.31086C7.28266 7.3046 7.28893 7.29834 7.29206 7.29208C7.29832 7.28581 7.30145 7.27955 7.30771 7.27329C7.31084 7.26703 7.3171 7.26077 7.32024 7.2545C7.32963 7.23885 7.33902 7.22319 7.34841 7.20754C7.35781 7.19188 7.3672 7.1731 7.37659 7.15744C7.38599 7.13866 7.39538 7.11987 7.4079 7.09795L7.44234 7.02907C7.45174 7.01029 7.458 6.99463 7.46113 6.97898C7.46426 6.96645 7.46426 6.9508 7.46113 6.93828C7.46113 6.92262 7.45487 6.90697 7.45174 6.89131C7.44547 6.87252 7.43921 6.85374 7.42669 6.83182C7.4173 6.81617 7.39538 6.7692 7.32337 6.59387C7.27327 6.47489 7.21065 6.3246 7.14177 6.16179C7.09167 6.03968 7.03845 5.91131 6.98522 5.78921L6.93826 5.67336C6.87251 5.51681 6.81302 5.37279 6.76918 5.26946C6.73474 5.18806 6.7003 5.12857 6.66586 5.08474C6.65334 5.06908 6.63142 5.04716 6.61263 5.03777C6.60324 5.03464 6.59072 5.03151 6.57193 5.03151C6.55628 5.03151 6.54375 5.03151 6.53123 5.03464C6.47487 5.03777 6.43104 5.03777 6.36529 5.03464C6.33085 5.03151 6.29954 5.03151 6.2651 5.02838C6.23065 5.02525 6.19621 5.02525 6.16177 5.02212C6.13359 5.01585 6.10228 5.01585 6.07411 5.01585Z" fill="#1BD741"/>
</svg>
